<svg width="334" height="400" viewBox="0 0 334 400" fill="none" xmlns="http://www.w3.org/2000/svg">
<path d="M257.448 280.813L264.019 277.152C266.812 275.598 268.47 272.584 268.291 269.393L267.079 247.906C267.079 247.906 243.001 264.559 244.405 264.359" fill="white"/>
<path d="M257.451 283.221C256.604 283.221 255.786 282.775 255.345 281.984C254.698 280.822 255.114 279.356 256.276 278.709L262.848 275.049C264.82 273.95 266.013 271.783 265.886 269.529L264.675 248.042C264.601 246.714 265.616 245.577 266.944 245.502C268.256 245.428 269.409 246.443 269.484 247.77L270.695 269.258C270.926 273.342 268.764 277.266 265.191 279.255L258.62 282.916C258.25 283.123 257.847 283.221 257.451 283.221Z" fill="#241A45"/>
<path d="M116.403 191.122L114.56 164.362C114.254 159.918 117.279 155.937 121.642 155.043C146.45 149.955 225.285 145.33 252.121 147.866C256.607 148.289 260.167 151.815 260.625 156.298C261.237 162.275 262.055 171.284 262.464 180.138C263.166 195.338 267.079 226.639 267.079 226.639L270.217 242.634C271.386 248.592 267.889 254.477 262.097 256.301L256.245 258.141L123.212 201.757" fill="white"/>
<path d="M138.361 295.862H129.568C123.771 295.862 119.071 291.162 119.071 285.365V270.618L130.914 258.14L136.378 272.201" fill="white"/>
<path d="M138.361 298.27H129.568C122.452 298.27 116.663 292.48 116.663 285.365V270.618C116.663 269.289 117.741 268.21 119.071 268.21C120.402 268.21 121.479 269.288 121.479 270.618V285.365C121.479 289.826 125.108 293.455 129.568 293.455H138.361C139.691 293.455 140.769 294.533 140.769 295.863C140.769 297.194 139.691 298.27 138.361 298.27Z" fill="#241A45"/>
<path d="M256.244 260.547C255.923 260.547 255.604 260.483 255.305 260.356L122.272 203.973C121.047 203.454 120.476 202.04 120.995 200.816C121.514 199.593 122.929 199.022 124.152 199.539L256.368 255.576L261.374 254C266.003 252.544 268.789 247.856 267.855 243.095L264.717 227.1C264.706 227.045 264.697 226.99 264.691 226.935C264.651 226.621 260.758 195.365 260.059 180.246C259.653 171.455 258.842 162.502 258.231 156.539C257.892 153.216 255.227 150.575 251.896 150.259C226.378 147.847 147.549 152.185 122.126 157.398C118.96 158.047 116.74 160.968 116.962 164.193L118.805 190.955C118.897 192.282 117.896 193.431 116.569 193.523C115.24 193.614 114.093 192.614 114.001 191.286L112.158 164.524C111.77 158.904 115.64 153.813 121.159 152.68C147.469 147.285 225.938 142.968 252.348 145.465C257.96 145.995 262.449 150.446 263.021 156.049C263.638 162.071 264.458 171.12 264.869 180.023C265.541 194.574 269.235 224.457 269.458 226.254L272.579 242.165C273.987 249.338 269.791 256.399 262.819 258.592L256.968 260.434C256.731 260.51 256.488 260.547 256.244 260.547Z" fill="#241A45"/>
<path d="M326.975 166.296C326.975 166.296 335.101 177.782 325.169 189.52C315.236 201.259 309.216 199.753 309.216 199.753C306.459 229.809 295.871 247.32 265.17 232.573C265.17 232.566 265.164 232.566 265.158 232.56C264.387 232.193 263.605 231.802 262.811 231.392C261.842 230.893 260.861 230.363 259.855 229.803C259.855 229.803 262.461 264.716 260.053 284.779C257.645 304.842 272.899 377.077 272.899 377.077C272.899 377.077 275.307 387.515 271.894 391.525C270.829 392.777 269.511 393.872 268.204 394.787C265.225 396.87 261.661 397.947 258.032 397.947H217.225C214.51 397.947 212.145 396.057 211.591 393.396C210.676 389.014 210.231 382.308 214.101 377.174C214.769 376.283 215.57 375.446 216.515 374.669C216.515 374.669 216.534 374.176 216.521 373.29C216.492 368.884 215.884 354.81 209.695 344.776C203.314 334.429 196.933 312.969 195.266 307.142L195.242 307.064V307.058C194.984 306.155 194.845 305.649 194.845 305.649C194.826 306.727 194.809 307.811 194.797 308.906C194.453 332.208 194.989 359.127 195.988 387.973C196.175 393.421 191.816 397.947 186.357 397.947H132.933C129.954 397.947 127.407 395.853 126.787 392.945C125.722 387.956 125.421 380.274 131.387 374.887C133.897 372.612 137.527 370.746 142.673 369.656C142.673 369.656 134.648 328.422 131.64 295.917C128.629 263.411 126.107 242.174 126.107 242.174L94.6187 224.705C94.6187 224.705 106.959 171.312 140.97 159.574C174.98 147.836 237.283 153.856 237.283 153.856C237.283 153.856 254.457 157.57 273.809 180.642L286.342 156.763C290.693 146.747 296.045 143.972 299.657 148.697C300.806 150.202 301.396 152.061 301.48 153.951L301.889 163.083L316.739 154.258C319.749 152.783 322.656 152.001 325.389 152.416C325.678 152.459 325.968 152.525 326.238 152.603C329.656 153.585 331.643 157.178 330.789 160.748C330.286 162.884 329.033 164.744 326.975 166.296Z" fill="white"/>
<g opacity="0.25">
<path d="M153.511 169.812C196.256 188.212 231.422 190.126 252.131 160.586L244.347 156.177C215.501 174.192 185.391 180.315 153.511 169.812Z" fill="#241A45"/>
</g>
<path d="M182.825 264.048C175.622 264.048 168.352 263.686 161.03 262.96C156.656 262.53 153.072 259.21 152.316 254.887C151.882 252.431 151.482 249.908 151.13 247.39C149.429 235.406 148.8 223.893 149.206 212.198C149.363 207.594 152.765 203.656 157.292 202.833C167.798 200.913 195.263 196.85 223.263 200.589C225.569 200.9 227.701 202.008 229.267 203.711C229.304 203.752 229.341 203.794 229.374 203.838C230.543 205.156 231.337 206.761 231.675 208.492C233.124 215.88 235.401 231.127 234.364 250.227C234.364 250.228 234.364 250.228 234.364 250.23C234.12 254.659 230.92 258.421 226.585 259.376C212.425 262.487 197.773 264.048 182.825 264.048ZM199.019 203.872C180.919 203.872 165.411 206.243 158.156 207.569C155.838 207.99 154.1 210.005 154.018 212.362C153.622 223.773 154.238 235.009 155.899 246.715C156.244 249.18 156.635 251.647 157.061 254.05C157.447 256.256 159.274 257.946 161.505 258.165C183.515 260.346 205.064 259.172 225.553 254.669C227.785 254.178 229.433 252.24 229.558 249.96C230.566 231.382 228.357 216.582 226.951 209.412C226.773 208.498 226.347 207.653 225.72 206.968C225.695 206.941 225.671 206.914 225.647 206.885C224.848 206.054 223.779 205.514 222.625 205.358C214.58 204.286 206.572 203.872 199.019 203.872Z" fill="#241A45"/>
<path d="M258.032 400H217.224C213.375 400 210.014 397.281 209.235 393.534C207.455 384.993 209.189 377.831 214.117 373.216C214.101 369.354 213.609 355.356 207.643 345.683C203.759 339.384 199.934 329.282 197.102 320.833C197.066 339.488 197.493 361.483 198.394 387.531C198.509 390.829 197.31 393.951 195.018 396.324C192.729 398.693 189.653 399.999 186.358 399.999H132.93C128.859 399.999 125.285 397.093 124.433 393.089C123.464 388.538 123.082 381.921 126.769 376.249C129.461 372.106 133.866 369.171 139.881 367.502C138.171 358.416 131.825 323.704 129.24 295.782C126.67 268.028 124.43 248.292 123.855 243.322L93.4506 226.456C92.5117 225.934 92.031 224.855 92.2726 223.809C92.4014 223.252 95.5057 210.014 102.882 195.117C112.767 175.152 125.666 161.951 140.183 156.94C174.298 145.166 234.948 150.853 237.513 151.101C237.606 151.11 237.699 151.125 237.791 151.144C238.495 151.297 254.635 154.987 273.322 176.034L284.169 155.366C287.276 148.243 291.019 144.224 295 143.737C297.458 143.436 299.794 144.551 301.571 146.876C302.975 148.715 303.776 151.001 303.887 153.486L304.117 158.603L315.509 151.829C315.565 151.796 315.623 151.765 315.682 151.736C319.443 149.897 322.733 149.222 325.749 149.676C328.243 150.052 330.395 151.412 331.808 153.504C333.264 155.66 333.745 158.374 333.132 160.95C332.642 163.007 331.615 164.839 330.069 166.419C332.82 171.704 334.77 181.542 327.004 190.719C319.958 199.046 314.496 201.254 311.402 201.742C309.326 221.283 304.06 232.673 294.899 237.502C286.806 241.768 276.194 240.498 262.544 233.603C263.159 243.636 264.375 268.629 262.445 284.711C260.111 304.157 275.1 375.508 275.252 376.226C275.516 377.371 277.804 387.934 273.728 392.73C272.645 394.005 271.25 395.241 269.58 396.407C266.221 398.758 262.225 400 258.032 400ZM194.847 302.885C195.919 302.885 196.878 303.599 197.167 304.656C197.242 304.923 204.586 331.551 211.742 343.156C219.459 355.67 218.947 373.639 218.922 374.398C218.899 375.093 218.577 375.743 218.038 376.182C212.741 380.506 212.891 387.47 213.949 392.552C214.266 394.077 215.643 395.184 217.224 395.184H258.032C261.234 395.184 264.275 394.243 266.825 392.46C268.157 391.53 269.246 390.572 270.061 389.612C271.866 387.489 271.435 381.113 270.551 377.264C269.916 374.257 255.238 304.366 257.666 284.138C260.017 264.538 257.482 229.973 257.455 229.626C257.39 228.742 257.815 227.894 258.562 227.417C259.31 226.94 260.258 226.912 261.03 227.344C274.83 235.045 285.469 237.031 292.657 233.243C300.459 229.13 305.092 217.988 306.82 199.179C306.888 198.442 307.188 197.747 307.81 197.345C308.417 196.954 309.069 196.828 309.749 197.046C310.296 197.088 315.25 197.16 323.33 187.61C331.891 177.494 325.289 167.734 325.004 167.322C324.265 166.261 324.492 164.796 325.525 164.017C327.107 162.824 328.065 161.457 328.45 159.837C328.752 158.567 328.523 157.241 327.819 156.2C327.169 155.237 326.181 154.612 325.035 154.439C323.042 154.137 320.702 154.656 317.886 156.021L303.124 164.799C302.397 165.231 301.496 165.251 300.749 164.849C300.004 164.447 299.525 163.683 299.487 162.837L299.077 153.702C299.01 152.203 298.549 150.853 297.744 149.8C296.664 148.387 295.849 148.485 295.584 148.518C294.028 148.708 291.252 151.139 288.55 157.367C288.527 157.421 288.501 157.474 288.473 157.526L275.942 181.404C275.57 182.115 274.866 182.593 274.068 182.679C273.272 182.767 272.481 182.447 271.966 181.832C254.298 160.767 238.417 156.271 236.885 155.879C233.303 155.551 174.027 150.354 141.755 161.493C112.802 171.486 99.8896 213.977 97.4146 223.147L127.273 239.71C127.949 240.086 128.405 240.763 128.496 241.531C128.522 241.744 131.059 263.172 134.037 295.337C137.001 327.352 144.958 368.427 145.039 368.839C145.29 370.129 144.459 371.382 143.173 371.654C137.27 372.902 133.11 375.331 130.808 378.871C128.021 383.161 128.364 388.424 129.145 392.086C129.533 393.909 131.09 395.183 132.932 395.183H186.36C188.337 395.183 190.182 394.4 191.556 392.978C192.931 391.553 193.651 389.678 193.583 387.697C192.414 353.961 192.04 326.992 192.438 305.247C192.46 304.049 193.358 303.051 194.546 302.902C194.647 302.891 194.747 302.885 194.847 302.885Z" fill="#241A45"/>
<path d="M302.583 160.422C306.409 162.264 309.368 166.057 310.061 170.226C310.32 171.493 310.286 172.797 310.219 174.067C310.035 173.459 309.897 172.853 309.677 172.277C308.693 169.546 306.689 167.171 304.088 165.938C303.176 165.519 302.174 165.112 301.203 165.038C298.184 164.033 299.503 159.605 302.583 160.422Z" fill="#241A45"/>
<path d="M308.789 201.768C303.777 199.917 299.468 196.253 296.575 191.817C300.26 194.765 304.788 196.748 309.5 197.036C309.557 197.036 309.632 197.039 309.642 197.028L308.789 201.768Z" fill="#241A45"/>
<path d="M299.28 218.173C286.224 218.173 277.968 213.297 273.129 208.8C266.866 202.979 264.858 196.581 264.776 196.311C264.608 195.76 264.643 195.166 264.874 194.639L271.607 179.317C272.142 178.099 273.563 177.545 274.78 178.081C275.998 178.616 276.552 180.036 276.017 181.254L269.669 195.698C271.234 199.659 279.509 216.428 306.337 212.872C307.66 212.697 308.865 213.625 309.04 214.943C309.215 216.261 308.288 217.471 306.97 217.646C304.24 218.009 301.678 218.173 299.28 218.173Z" fill="#241A45"/>
<path d="M262.464 208.779C262.148 208.779 261.826 208.716 261.516 208.583C260.295 208.059 259.729 206.643 260.251 205.422L264.867 194.659C265.391 193.437 266.805 192.87 268.029 193.395C269.251 193.919 269.817 195.335 269.294 196.556L264.679 207.32C264.286 208.233 263.398 208.779 262.464 208.779Z" fill="#241A45"/>
<path d="M105.599 67.8096L95.9677 72.2034C90.3264 74.7775 86.8431 80.55 87.1962 86.7399L88.8276 115.358C89.2289 122.399 94.4688 128.215 101.43 129.345L114.11 131.404" fill="white"/>
<path d="M263.379 58.813L273.448 62.0832C279.345 63.9983 283.462 69.3385 283.815 75.5285L285.446 104.147C285.847 111.188 281.302 117.561 274.515 119.475L262.152 122.962" fill="white"/>
<g opacity="0.25">
<path d="M114.109 131.404L101.426 129.348C94.4726 128.217 89.2278 122.398 88.8265 115.359L87.8999 99.1138C88.3013 106.153 93.5461 111.972 100.499 113.103L111.91 114.956L114.109 131.404Z" fill="#241A45"/>
</g>
<g opacity="0.25">
<path d="M284.517 87.9033L285.444 104.148C285.845 111.188 281.304 117.564 274.515 119.479L262.148 122.963L262.469 106.364L273.589 103.234C280.377 101.319 284.918 94.9418 284.517 87.9033Z" fill="#241A45"/>
</g>
<path d="M185.515 175.915C233.427 175.915 272.267 137.075 272.267 89.163C272.267 41.251 233.427 2.41064 185.515 2.41064C137.603 2.41064 98.7625 41.251 98.7625 89.163C98.7625 137.075 137.603 175.915 185.515 175.915Z" fill="white"/>
<g opacity="0.25">
<path d="M190.455 175.774C170.613 176.905 151.955 171.275 136.708 160.886C145.792 163.478 155.452 164.613 165.408 164.043C213.238 161.317 249.806 120.328 247.08 72.4933C245.478 44.5003 230.777 20.3598 209.264 5.70312C243.811 15.5251 269.969 46.3374 272.126 84.2228C274.854 132.059 238.29 173.048 190.455 175.774Z" fill="#241A45"/>
</g>
<path d="M272.289 87.066C274.46 125.137 237.446 158.215 189.609 160.943C145.994 163.43 108.444 139.831 100.523 106.783C99.7496 103.589 99.2579 100.303 99.0659 96.9437C96.8956 58.8724 133.909 25.8044 181.748 23.0767C217.692 21.0266 249.515 36.6966 264.038 60.7603V60.7702C268.843 68.7315 271.749 77.612 272.289 87.066Z" fill="#241A45"/>
<g opacity="0.7">
<path d="M272.289 87.0659C274.46 125.137 237.446 158.215 189.609 160.943C145.994 163.43 108.444 139.831 100.523 106.783C101.112 105.931 101.457 105.464 101.457 105.464C145.558 169.131 265.834 134.181 264.038 60.77C268.843 68.7314 271.749 77.6119 272.289 87.0659Z" fill="#161128"/>
</g>
<path d="M185.399 178.327C163.499 178.328 142.636 170.393 126.161 155.696C108.388 139.841 97.8555 118.016 96.5003 94.2382C95.1439 70.4619 103.129 47.58 118.982 29.8078C134.837 12.0369 156.663 1.50399 180.44 0.147571C204.224 -1.20513 227.099 6.77728 244.87 22.6306C262.642 38.4852 273.175 60.3104 274.53 84.088C275.887 107.865 267.902 130.746 252.048 148.518C236.194 166.289 214.368 176.823 190.591 178.18C188.855 178.278 187.123 178.326 185.399 178.327ZM185.625 4.81512C183.993 4.81512 182.356 4.8622 180.715 4.9551C158.222 6.23719 137.574 16.2028 122.576 33.0137C107.578 49.8258 100.025 71.4714 101.308 93.9644C102.591 116.457 112.556 137.103 129.366 152.102C146.177 167.099 167.825 174.654 190.316 173.37C212.809 172.088 233.456 162.122 248.455 145.311C263.452 128.499 271.006 106.853 269.723 84.3605C268.439 61.8675 258.475 41.2215 241.664 26.2229C226.079 12.3206 206.341 4.81512 185.625 4.81512Z" fill="#241A45"/>
<path d="M98.8218 94.803C97.7131 94.803 96.7841 93.9371 96.7197 92.8161C95.5689 72.6383 103.763 53.1617 119.791 37.9723C135.723 22.8759 157.511 13.8182 181.142 12.4717C204.771 11.124 227.448 17.6459 244.994 30.8335C262.645 44.1028 272.999 62.5216 274.15 82.6993C274.216 83.8613 273.327 84.856 272.166 84.9229C271.022 84.9959 270.009 84.1016 269.942 82.9396C268.863 64.0217 259.103 46.7128 242.461 34.2029C225.71 21.6111 204.013 15.3865 181.38 16.6797C158.742 17.9705 137.898 26.6193 122.689 41.032C107.576 55.353 99.8462 73.659 100.925 92.577C100.991 93.7389 100.103 94.7336 98.9407 94.8005C98.9023 94.8018 98.8627 94.803 98.8218 94.803Z" fill="#241A45"/>
<path d="M114.113 133.812C113.984 133.812 113.855 133.802 113.724 133.781L101.043 131.722C92.9043 130.401 86.8927 123.729 86.4233 115.496L84.7918 86.8778C84.3793 79.6411 88.373 73.0213 94.9681 70.0136L104.599 65.6198C105.807 65.0686 107.236 65.6012 107.789 66.8115C108.34 68.0217 107.808 69.45 106.597 70.0012L96.9661 74.395C92.1921 76.5727 89.3008 81.3654 89.5994 86.604L91.2308 115.224C91.5702 121.183 95.9231 126.014 101.815 126.971L114.495 129.029C115.809 129.243 116.699 130.48 116.486 131.792C116.294 132.972 115.273 133.812 114.113 133.812Z" fill="#241A45"/>
<path d="M262.15 125.372C261.099 125.372 260.134 124.678 259.834 123.616C259.472 122.337 260.218 121.006 261.498 120.646L273.861 117.159C279.607 115.538 283.382 110.244 283.043 104.285L281.412 75.6661C281.113 70.4275 277.695 65.9953 272.704 64.3738L262.636 61.1035C261.371 60.6922 260.679 59.3346 261.09 58.0698C261.501 56.8051 262.86 56.1126 264.124 56.5239L274.192 59.7942C281.086 62.0338 285.807 68.1556 286.219 75.3923L287.85 104.011C288.32 112.243 283.105 119.556 275.17 121.794L262.806 125.281C262.586 125.343 262.367 125.372 262.15 125.372Z" fill="#241A45"/>
<g opacity="0.5">
<path d="M240.088 124.363C248.665 88.0074 234.275 60.1358 200.107 39.5679C259.047 52.2017 272.325 98.6109 240.088 124.363Z" fill="white"/>
</g>
<g opacity="0.5">
<path d="M130.348 95.5462C130.583 100.38 131.477 107.418 134.263 115.101C135.695 119.051 133.779 123.433 129.913 125.079C126.457 126.551 122.431 125.402 120.293 122.314C114.897 114.524 111.239 105.036 112.097 95.13C112.582 89.5347 118.063 85.7639 123.5 87.1699C127.367 88.1696 130.154 91.5563 130.348 95.5462Z" fill="white"/>
</g>
<g opacity="0.5">
<path d="M136.78 56.9871C138.783 59.1921 139.124 62.4425 137.621 65.0141L133.667 71.785C131.973 74.6874 128.415 75.9224 125.286 74.6961L124.781 74.4979C120.912 72.9817 119.263 68.3785 121.337 64.7788C122.587 62.6085 124.234 60.0716 126.355 57.3674C128.963 54.0426 133.94 53.8593 136.78 56.9871Z" fill="white"/>
</g>
<path d="M55.4981 264.711C35.1754 263.661 37.1363 253.096 37.1363 253.096C38.2759 253.256 68.4342 257.637 68.4342 257.637" fill="#ABA7B7"/>
<path d="M74.2798 268.773L114.962 272.181C116.498 272.31 118.01 271.734 119.07 270.616L157.191 230.45C158.048 229.547 158.525 228.35 158.525 227.106V224.342C158.525 221.963 156.801 219.932 154.453 219.547L79.0675 207.173L74.2798 268.773Z" fill="#ABA7B7"/>
<path d="M115.397 274.608C115.187 274.608 114.975 274.599 114.763 274.582L74.0792 271.174C72.7599 271.064 71.7764 269.908 71.8792 268.588L76.6682 206.988C76.7202 206.315 77.0522 205.696 77.5824 205.28C78.1125 204.864 78.7926 204.69 79.459 204.798L154.845 217.172C158.374 217.751 160.936 220.766 160.936 224.343V227.106C160.936 228.975 160.227 230.753 158.939 232.109L120.818 272.274C119.393 273.777 117.445 274.608 115.397 274.608ZM76.8664 266.575L115.164 269.783C115.982 269.852 116.765 269.551 117.325 268.961L155.446 228.795C155.88 228.338 156.118 227.738 156.118 227.107V224.344C156.118 223.137 155.254 222.12 154.063 221.925L81.2651 209.976L76.8664 266.575Z" fill="#241A45"/>
<path d="M112.467 263.622L36.2481 252.974C31.0652 252.251 26.3816 249.422 23.4148 245.106C22.4089 243.65 21.4402 242.132 20.5013 240.568C7.70266 219.294 0.86484 189.19 3.6458 172.618C4.22925 169.163 7.5887 166.894 11.02 167.616L96.0047 185.453C100.242 186.343 103.619 189.564 104.703 193.76C105.191 195.644 105.666 197.522 106.136 199.393C111.254 219.691 115.473 239.248 118.247 257.777C118.752 261.165 115.862 264.097 112.467 263.622Z" fill="#ABA7B7"/>
<g opacity="0.6">
<path d="M9.26858 178.439C6.31915 195.968 14.1566 228.654 28.4046 249.999C26.4597 248.717 24.7627 247.062 23.4149 245.105C8.76193 223.79 0.660601 190.405 3.64595 172.618C4.2294 169.163 7.58885 166.894 11.0201 167.616L96.0048 185.453C99.6703 186.223 102.693 188.733 104.137 192.116C103.343 191.737 102.5 191.454 101.621 191.273L16.6428 173.437C13.2053 172.713 9.84583 174.983 9.26858 178.439Z" fill="white"/>
</g>
<path d="M113.198 266.079C112.845 266.079 112.49 266.054 112.132 266.005L35.9161 255.358C30.0271 254.535 24.7464 251.295 21.4291 246.466C7.21459 225.784 -2.01522 191.783 1.27362 172.22C1.66258 169.905 2.94839 167.898 4.89197 166.571C6.84669 165.237 9.20029 164.772 11.5155 165.257L96.4977 183.092C101.673 184.179 105.71 188.035 107.032 193.156C113.404 217.851 117.85 238.871 120.625 257.419C120.98 259.795 120.215 262.137 118.526 263.844C117.092 265.292 115.194 266.079 113.198 266.079ZM112.798 261.234C113.658 261.352 114.497 261.07 115.105 260.456C115.715 259.84 115.992 258.992 115.863 258.133C113.113 239.752 108.699 218.892 102.369 194.361C101.508 191.027 98.8798 188.516 95.5092 187.807L10.5257 169.972C9.50502 169.757 8.46696 169.963 7.60604 170.551C6.75379 171.132 6.19264 172.009 6.02293 173.02C3.30639 189.182 10.5939 222.201 25.398 243.74C27.9523 247.457 32.0289 249.953 36.5825 250.59L112.798 261.234Z" fill="#241A45"/>
<path d="M112.943 266.07C111.853 266.07 110.866 265.325 110.602 264.219L96.2624 203.848C95.2107 199.422 91.6605 195.932 87.2159 194.958L2.9076 176.501C1.60817 176.216 0.785647 174.933 1.07056 173.634C1.35547 172.335 2.64375 171.512 3.93699 171.797L88.2453 190.254C94.4861 191.62 99.472 196.519 100.947 202.734L115.287 263.104C115.594 264.397 114.795 265.695 113.501 266.002C113.314 266.049 113.127 266.07 112.943 266.07Z" fill="#241A45"/>
<path d="M55.5007 267.119C55.4586 267.119 55.4177 267.117 55.3743 267.115C46.4083 266.652 40.2196 264.335 36.9791 260.229C34.1337 256.623 34.6949 253.053 34.7679 252.658C35.0107 251.349 36.2755 250.49 37.5749 250.729C38.8694 250.969 39.7291 252.204 39.5098 253.497C39.4912 253.634 39.2819 255.448 40.8464 257.354C42.4865 259.35 46.3799 261.829 55.6221 262.306C56.95 262.374 57.9707 263.506 57.9026 264.834C57.8369 266.12 56.7729 267.119 55.5007 267.119Z" fill="#241A45"/>
<path d="M118.302 259.042C117.774 259.042 117.247 258.845 116.838 258.45C116.002 257.641 115.979 256.307 116.787 255.47L152.94 218.083C153.749 217.247 155.083 217.224 155.919 218.033C156.755 218.842 156.777 220.176 155.97 221.012L119.817 258.4C119.403 258.827 118.853 259.042 118.302 259.042Z" fill="#241A45"/>
<g opacity="0.25">
<path d="M118.302 256.935L154.455 219.547L157.268 221.085L158.528 229.245L119.071 271.846L117.092 269.777L115.745 263.672L118.302 260.346" fill="#241A45"/>
</g>
<path d="M116.401 273.79C115.249 273.79 114.232 272.962 114.03 271.787L112.713 264.076C112.489 262.766 113.369 261.521 114.68 261.298C115.991 261.075 117.234 261.954 117.46 263.266L118.778 270.978C119.002 272.289 118.121 273.534 116.811 273.757C116.672 273.779 116.536 273.79 116.401 273.79Z" fill="#241A45"/>
<path d="M120.051 231.603C119.957 231.603 119.862 231.595 119.766 231.58L112.66 230.443C111.927 230.327 111.342 229.773 111.182 229.049L109.036 219.293C108.907 218.706 109.078 218.093 109.495 217.657C109.91 217.222 110.514 217.023 111.107 217.126L126.413 219.774C127.03 219.881 127.547 220.299 127.781 220.879C128.015 221.459 127.932 222.119 127.562 222.623L121.508 230.866C121.163 231.334 120.621 231.603 120.051 231.603ZM114.445 227.071L119.248 227.84L122.922 222.836L113.14 221.143L114.445 227.071Z" fill="#241A45"/>
<path d="M118.301 250.314C117.912 250.314 117.52 250.189 117.191 249.931C116.406 249.317 116.266 248.182 116.88 247.397L124.206 238.016L114.077 236.922C113.085 236.815 112.369 235.925 112.475 234.933C112.582 233.942 113.481 233.227 114.463 233.331L127.821 234.773C128.472 234.843 129.035 235.261 129.291 235.865C129.546 236.469 129.454 237.164 129.051 237.68L119.727 249.619C119.369 250.076 118.837 250.314 118.301 250.314Z" fill="#241A45"/>
<g opacity="0.25">
<path d="M112.468 263.621L36.2483 252.973C31.0654 252.251 26.3817 249.422 23.415 245.106C22.4091 243.649 21.4404 242.132 20.5015 240.567C95.0597 254.346 98.605 203.294 98.605 203.294L106.135 199.393C111.252 219.691 115.472 239.248 118.246 257.777C118.752 261.165 115.862 264.097 112.468 263.621Z" fill="#241A45"/>
</g>
<path d="M83.1827 273.438C103.862 267.573 87.2458 251.768 77.0126 249.21C60.4854 244.191 53.0257 255.922 56.2241 265.534C57.0243 267.939 58.7264 269.948 60.9127 271.229C67.3195 274.982 74.8349 275.443 83.1827 273.438Z" fill="#E6E0F9"/>
<g opacity="0.25">
<path d="M83.1825 273.439C74.8334 275.443 67.3205 274.98 60.9162 271.23C58.7249 269.948 57.0217 267.938 56.2264 265.536C55.8114 264.283 55.5699 262.995 55.5166 261.713C61.8255 265.235 69.1811 265.626 77.3369 263.669C84.5848 261.616 87.2518 258.335 87.2146 254.838C94.0115 260.738 97.3462 269.424 83.1825 273.439Z" fill="#241A45"/>
</g>
<path d="M74.0321 277.006C68.7006 277.006 63.9029 275.771 59.6962 273.306C56.9536 271.699 54.9085 269.209 53.9398 266.295C52.0359 260.574 53.3452 254.465 57.3537 250.348C60.0517 247.579 66.2726 243.45 77.6566 246.889C84.8574 248.717 95.3433 256.469 95.4696 264.528C95.5254 268.128 93.5546 272.999 83.8392 275.755C83.8082 275.764 83.776 275.772 83.7438 275.78C80.3385 276.597 77.0967 277.006 74.0321 277.006ZM69.5466 250.414C65.9332 250.414 62.9305 251.525 60.8024 253.71C58.0549 256.531 57.1754 260.771 58.507 264.776C59.1078 266.582 60.3948 268.137 62.1291 269.152C67.7108 272.423 74.3963 273.064 82.5719 271.111C86.3005 270.047 90.7067 268.057 90.6534 264.606C90.5754 259.692 82.5744 253.084 76.4278 251.547C76.3894 251.538 76.3498 251.528 76.3126 251.515C73.8884 250.778 71.6166 250.414 69.5466 250.414Z" fill="#241A45"/>
<path d="M143.264 366.966L149.849 371.107L142.088 371.636C140.694 371.731 139.485 370.677 139.39 369.282C139.187 367.268 141.607 365.852 143.264 366.966Z" fill="#241A45"/>
<path d="M214.765 372.664C219.533 368.735 226.008 367.559 231.989 367.517C235.14 367.567 238.387 368.008 241.457 368.656L245.109 369.601C242.895 369.362 239.829 369.126 237.645 369.179C236.965 369.217 235.522 369.255 234.872 369.303C234.306 369.366 232.724 369.549 232.134 369.619C228.047 370.303 223.959 371.562 220.596 373.938C219.756 374.529 218.898 375.207 218.267 375.968C216.037 378.222 212.639 375.032 214.765 372.664Z" fill="#241A45"/>
<path d="M229.123 354.548C223.487 354.548 217.826 353.999 212.483 353.281C211.165 353.104 210.24 351.892 210.418 350.574C210.595 349.256 211.805 348.33 213.125 348.508C240.315 352.161 255.182 347.609 262.83 333.282C263.457 332.109 264.916 331.665 266.088 332.292C267.261 332.917 267.705 334.377 267.078 335.55C259.026 350.63 244.169 354.548 229.123 354.548Z" fill="#241A45"/>
<path d="M167.127 354.317C151.765 354.317 138.541 348.941 137.651 348.572C136.424 348.061 135.841 346.653 136.352 345.424C136.862 344.196 138.268 343.613 139.498 344.123C139.829 344.26 172.774 357.613 193.358 341.387C194.403 340.562 195.916 340.743 196.739 341.787C197.563 342.831 197.383 344.345 196.339 345.169C187.482 352.152 176.873 354.317 167.127 354.317Z" fill="#241A45"/>
<path d="M155.827 287.973C185.195 294.848 199.696 294.889 229.047 287.973C229.181 287.922 229.367 287.981 229.393 288.141C229.417 288.249 229.361 288.356 229.267 288.401L224.965 290.516C205.462 299.621 184.325 300.451 164.316 292.416C161.687 291.355 158.157 289.697 155.61 288.401C155.494 288.344 155.445 288.202 155.502 288.085C155.571 287.959 155.699 287.932 155.827 287.973Z" fill="#241A45"/>
<path d="M194.831 308.352C193.633 308.352 192.595 307.459 192.444 306.239L191.402 297.812C191.239 296.493 192.177 295.29 193.496 295.126C194.815 294.963 196.018 295.901 196.181 297.221L197.223 305.648C197.387 306.967 196.449 308.17 195.13 308.334C195.029 308.346 194.929 308.352 194.831 308.352Z" fill="#241A45"/>
<path d="M257.472 229.781C255.257 210.848 251.264 191.911 244.406 174.066C246.489 178.395 248.465 182.797 250.194 187.299C255.429 200.868 259.398 214.823 262.24 229.112C262.752 232.408 257.899 233.111 257.472 229.781Z" fill="#241A45"/>
<path d="M189.451 261.404L188.533 237.955C188.437 235.481 189.457 233.135 191.334 231.52L198.283 225.542C199.019 224.909 199.432 223.989 199.416 223.02L199.059 201.498L203.874 201.418L204.231 222.939C204.272 225.343 203.248 227.623 201.424 229.192L194.474 235.17C193.718 235.822 193.305 236.768 193.345 237.767L194.263 261.216L189.451 261.404Z" fill="#241A45"/>
<path d="M171.82 236.72C177.14 236.72 181.452 232.205 181.452 226.637C181.452 221.068 177.14 216.553 171.82 216.553C166.501 216.553 162.189 221.068 162.189 226.637C162.189 232.205 166.501 236.72 171.82 236.72Z" fill="#9A7BFF"/>
<path d="M171.821 239.128C165.182 239.128 159.781 233.525 159.781 226.637C159.781 219.749 165.182 214.146 171.821 214.146C178.459 214.146 183.86 219.749 183.86 226.637C183.86 233.524 178.459 239.128 171.821 239.128ZM171.821 218.963C167.838 218.963 164.596 222.405 164.596 226.638C164.596 230.871 167.837 234.313 171.821 234.313C175.804 234.313 179.044 230.871 179.044 226.638C179.044 222.405 175.803 218.963 171.821 218.963Z" fill="#241A45"/>
<path d="M231.338 225.29C230.091 225.29 229.035 224.328 228.939 223.063C228.838 221.736 229.833 220.582 231.158 220.481L257.266 218.518C258.598 218.415 259.747 219.412 259.848 220.738C259.948 222.065 258.953 223.22 257.628 223.319L231.52 225.283C231.459 225.288 231.399 225.29 231.338 225.29Z" fill="#241A45"/>
<path d="M259.859 244.094H232.219C230.888 244.094 229.811 243.016 229.811 241.686C229.811 240.356 230.888 239.278 232.219 239.278H259.859C261.189 239.278 262.267 240.356 262.267 241.686C262.267 243.011 261.195 244.088 259.87 244.094C259.867 244.094 259.862 244.094 259.859 244.094Z" fill="#241A45"/>
<path d="M153.511 253.525H138.361C137.031 253.525 135.953 252.447 135.953 251.117C135.953 249.787 137.031 248.708 138.361 248.708H153.511C154.841 248.708 155.919 249.786 155.919 251.117C155.919 252.446 154.841 253.525 153.511 253.525Z" fill="#241A45"/>
<path d="M135.402 180.136C132.904 186.403 131.495 193.046 130.668 199.711C130.024 204.821 129.874 210.076 130.033 215.214L125.219 215.073C125.556 212.008 125.922 208.954 126.515 205.932C128.216 196.995 130.968 188.097 135.402 180.136Z" fill="#241A45"/>
<g opacity="0.25">
<path d="M231.961 250.096C231.774 253.473 229.372 256.296 226.068 257.024C204.861 261.683 183.245 262.742 161.268 260.563C157.963 260.239 155.26 257.74 154.689 254.471C154.255 252.021 153.864 249.547 153.514 247.055C192.521 256.024 219.224 245.381 227.494 205.345C228.397 206.332 229.041 207.566 229.313 208.951C230.776 216.41 232.979 231.35 231.961 250.096Z" fill="#241A45"/>
</g>
<g opacity="0.25">
<path d="M271.895 391.169C270.83 392.421 269.512 393.516 268.205 394.432C265.226 396.514 261.662 397.592 258.033 397.592H217.226C214.511 397.592 212.146 395.701 211.592 393.041C210.677 388.658 210.232 381.953 214.102 376.818C214.216 377.083 214.319 377.366 214.409 377.673C217.118 386.949 240.294 389.182 252.934 381.037C265.575 372.893 253.837 331.376 250.9 309.706C247.957 288.036 237.585 284.724 237.585 284.724C243.264 275.955 246.712 265.282 248.67 254.117C249.191 251.153 246.994 248.402 243.993 248.216L238.94 247.903C238.94 247.903 241.649 252.52 235.328 260.496C229.008 268.472 191.686 268.773 177.992 268.472C164.298 268.171 162.19 261.309 162.19 261.309C162.19 261.309 172.876 262.302 174.832 261.646C176.788 260.995 217.421 260.345 224.794 258.136C232.168 255.933 232.222 248.608 232.222 248.608L232.921 233.499H244.794C248.139 233.499 250.874 230.805 250.896 227.46C251.07 201.313 246.197 178.608 246.05 177.915C251.016 190.278 255.525 206.694 259.86 224.632L262.815 231.038C261.847 230.538 260.866 230.008 259.86 229.448C259.86 229.448 262.466 264.362 260.058 284.425C257.65 304.488 272.904 376.723 272.904 376.723C272.904 376.723 275.308 387.16 271.895 391.169Z" fill="#241A45"/>
</g>
<g opacity="0.25">
<path d="M195.988 387.618C196.175 393.066 191.816 397.592 186.357 397.592H132.933C129.954 397.592 127.407 395.497 126.787 392.59C125.722 387.6 125.421 379.919 131.387 374.532C131.76 375.496 132.049 376.542 132.241 377.674C134.951 393.572 151.805 389.208 162.64 389.184C173.475 389.16 177.087 367.495 174.98 340.708C172.873 313.92 166.493 292.852 166.493 292.852L174.577 293.557L193.791 296.662C193.791 296.662 194.176 301.279 194.796 308.551C194.453 331.852 194.99 358.773 195.988 387.618Z" fill="#241A45"/>
</g>
<g opacity="0.25">
<path d="M221.481 371.107L216.521 372.936C216.492 368.53 215.884 354.456 209.695 344.422C203.314 334.075 196.933 312.615 195.266 306.788L195.242 306.71V306.704L194.316 295.862H204.025L216.515 292.852C216.515 292.852 207.185 302.182 214.107 326.261C221.03 350.339 221.481 371.107 221.481 371.107Z" fill="#241A45"/>
</g>
<g opacity="0.25">
<path d="M326.975 166.296C326.975 166.296 335.101 177.782 325.169 189.52C315.236 201.259 309.216 199.753 309.216 199.753C306.459 229.809 295.871 247.32 265.17 232.573C265.17 232.566 265.164 232.566 265.158 232.56C261.979 230.038 259.855 228.293 259.855 228.293L257.447 216.266L254.822 204.974C255.051 205.455 263.828 223.833 276.305 216.556C288.947 209.181 293.762 184.7 293.762 184.7C307.047 193.91 315.234 190.076 316.437 168.4C316.437 168.4 327.272 161.225 326.266 153.603C326.224 153.26 326.212 152.929 326.236 152.604C329.655 153.585 331.642 157.178 330.787 160.748C330.286 162.884 329.033 164.744 326.975 166.296Z" fill="#241A45"/>
</g>
<g opacity="0.25">
<path d="M107.614 205.345C107.614 205.345 119.257 211.384 133.173 185.401C133.173 185.401 128.027 203.16 128.629 210.986C129.231 218.811 121.908 215.145 121.908 215.145L110.799 213.093" fill="#241A45"/>
</g>
</svg>
