<svg width="72" height="78" viewBox="0 0 72 78" fill="none" xmlns="http://www.w3.org/2000/svg">
<path d="M62.384 38.4586C64.9103 38.0131 67.3198 39.7003 67.7652 42.2266C68.2107 44.7529 66.5236 47.1623 63.9972 47.6078L11.3894 56.884C8.86313 57.3294 6.45369 55.6423 6.00823 53.116C5.56277 50.5897 7.24988 48.1802 9.7762 47.7348L62.384 38.4586Z" fill="#FC6E51"/>
<path d="M10.1795 50.0221L62.7873 40.7459C63.987 40.5344 65.0609 40.0243 65.9473 39.3067C64.9587 38.5753 63.69 38.2283 62.384 38.4586L9.7762 47.7348C8.47015 47.9651 7.39666 48.7251 6.71781 49.7504C7.79619 50.1216 8.97982 50.2336 10.1795 50.0221Z" fill="#E9573F"/>
<path d="M8.16295 38.5856C5.63663 39.0311 3.94952 41.4405 4.39498 43.9668C4.84044 46.4931 7.24988 48.1802 9.7762 47.7348L14.3508 46.9282L62.384 38.4586C64.9103 38.0131 66.5974 35.6037 66.152 33.0774C65.7065 30.5511 63.2971 28.864 60.7707 29.3094L8.16295 38.5856Z" fill="#CF9E76"/>
<path d="M8.68634 40.8517L61.2941 31.5755C62.4938 31.364 63.5678 30.8539 64.4542 30.1363C63.4656 29.405 62.1969 29.058 60.8908 29.2883L8.28303 38.5644C6.97699 38.7947 5.90349 39.5547 5.22465 40.5801C6.30303 40.9512 7.48666 41.0633 8.68634 40.8517Z" fill="#B27946"/>
<path d="M11.2861 66.0151C9.46358 65.6501 7.96349 64.2048 7.62148 62.2652C7.17602 59.7389 8.86313 57.3294 11.3894 56.884L63.9972 47.6078C66.5236 47.1623 68.933 48.8494 69.3785 51.3758C69.7205 53.3154 68.8052 55.1866 67.2185 56.1527L66.0138 59.0443L13.406 68.3204L11.2861 66.0151Z" fill="#FFEAA7"/>
<path d="M60.8729 20.1785C62.6953 20.5423 64.1965 21.9874 64.5387 23.9282C64.9842 26.4545 63.2971 28.864 60.7707 29.3094L28.7486 34.9558C27.4849 35.1786 26.6418 36.3827 26.8646 37.6464L28.4779 46.7956C28.7007 48.0593 27.8576 49.2634 26.5939 49.4862C25.3302 49.709 24.1261 48.8659 23.9033 47.6022L22.6933 40.7403C22.4705 39.4766 21.2665 38.6335 20.0027 38.8563C18.739 39.0792 17.8959 40.2832 18.1188 41.5469L18.9254 46.1215C19.1482 47.3853 18.3051 48.5893 17.0414 48.8121C15.7777 49.035 14.5736 48.1919 14.3508 46.9282L13.1409 40.0663C12.918 38.8025 11.714 37.9595 10.4502 38.1823L8.16295 38.5856C5.63663 39.0311 3.22719 37.344 2.78173 34.8176C2.44759 32.9226 3.31269 31.0944 4.83236 30.1095L5.00274 27.3508L58.7542 17.8729L60.8729 20.1785Z" fill="#FFEAA7"/>
<path d="M8.83141 69.1271L70.5884 58.2376C71.4793 63.2903 68.1051 68.1092 63.0525 69.0001L19.5938 76.663C14.5412 77.5539 9.72233 74.1797 8.83141 69.1271Z" fill="#DFB28B"/>
<path d="M63.3288 17.0663L1.5718 27.9557C-0.210235 17.8493 6.53725 8.21292 16.6437 6.43089L41.8039 1.99446C51.9103 0.212424 61.5467 6.95991 63.3288 17.0663Z" fill="#DFB28B"/>
<path d="M62.9709 21.2095C62.3729 20.7005 61.6564 20.3352 60.8729 20.1785L58.7542 17.8729L5.00274 27.3508L4.83236 30.1095C4.20062 30.5192 3.69096 31.0796 3.32377 31.7257C5.12985 33.8965 8.0143 35.0742 10.9889 34.5497C13.227 34.155 15.0909 32.8748 16.2827 31.134C17.998 32.3622 20.1873 32.9278 22.4254 32.5331C24.6635 32.1385 26.5273 30.8582 27.7192 29.1175C29.4345 30.3456 31.6238 30.9112 33.8619 30.5166C36.1 30.1219 37.9638 28.8417 39.1556 27.1009C40.871 28.3291 43.0602 28.8947 45.2984 28.5C47.5365 28.1054 49.4003 26.8251 50.5921 25.0844C52.3074 26.3125 54.4967 26.8781 56.7348 26.4835C59.7083 25.9591 62.0162 23.8671 62.9709 21.2095Z" fill="#FCD770"/>
<path d="M35.8812 21.9061L53.9089 30.5194L55.0525 30.3177L57.6105 18.0746L35.8812 21.9061Z" fill="#FFC729"/>
<path d="M3.85909 27.5524C4.41587 30.71 7.428 32.8192 10.5856 32.2624C13.7432 31.7056 15.8523 28.6935 15.2956 25.5359C15.8523 28.6935 18.8645 30.8026 22.0221 30.2458C25.1797 29.6891 27.2888 26.6769 26.732 23.5193C27.2888 26.6769 30.301 28.786 33.4586 28.2293C36.6162 27.6725 38.7253 24.6604 38.1685 21.5028C38.7253 24.6604 41.7374 26.7695 44.895 26.2127C48.0527 25.6559 50.1618 22.6438 49.605 19.4862C50.1618 22.6438 53.1739 24.7529 56.3315 24.1962C59.4891 23.6394 61.5983 20.6272 61.0415 17.4696L3.85909 27.5524Z" fill="#A0D468"/>
<path d="M68.3011 58.641C67.7443 55.4833 64.7322 53.3742 61.5746 53.931C58.417 54.4878 56.3078 57.4999 56.8646 60.6575C56.3078 57.4999 53.2957 55.3908 50.1381 55.9476C46.9805 56.5043 44.8714 59.5165 45.4281 62.6741C44.8714 59.5165 41.8592 57.4073 38.7016 57.9641C35.544 58.5209 33.4349 61.533 33.9917 64.6906C33.4349 61.533 30.4228 59.4239 27.2651 59.9807C24.1075 60.5374 21.9984 63.5496 22.5552 66.7072C21.9984 63.5496 18.9863 61.4405 15.8287 61.9972C12.6711 62.554 10.5619 65.5661 11.1187 68.7238L68.3011 58.641Z" fill="#A0D468"/>
<path d="M11.6727 59.1924L64.2805 49.9163C65.4802 49.7047 66.5541 49.1946 67.4405 48.477C66.4519 47.7457 65.1832 47.3987 63.8772 47.629L11.2694 56.9051C9.96332 57.1354 8.88982 57.8954 8.21097 58.9208C9.28936 59.2919 10.4718 59.4042 11.6727 59.1924Z" fill="#FCD770"/>
<path d="M22.6345 64.3348C22.4516 65.0899 22.4116 65.8929 22.5552 66.7072L33.9917 64.6906C33.8481 63.8764 33.5358 63.1354 33.1057 62.4884L22.6345 64.3348Z" fill="#8CC152"/>
<path d="M34.071 62.3182C33.8881 63.0733 33.8481 63.8764 33.9917 64.6906L45.4281 62.6741C45.2846 61.8598 44.9723 61.1189 44.5422 60.4719L34.071 62.3182Z" fill="#8CC152"/>
<path d="M11.198 66.3514C11.0151 67.1065 10.9751 67.9095 11.1187 68.7238L22.5552 66.7072C22.4116 65.8929 22.0994 65.152 21.6693 64.505L11.198 66.3514Z" fill="#8CC152"/>
<path d="M45.5074 60.3017C45.3246 61.0568 45.2846 61.8598 45.4281 62.6741L56.8646 60.6575C56.721 59.8432 56.4088 59.1023 55.9787 58.4553L45.5074 60.3017Z" fill="#8CC152"/>
<path d="M56.9439 58.2851C56.761 59.0402 56.721 59.8432 56.8646 60.6575L68.3011 58.641C68.1575 57.8267 67.8453 57.0858 67.4152 56.4388L56.9439 58.2851Z" fill="#8CC152"/>
<path d="M38.0892 23.8752C38.2721 23.1201 38.3121 22.317 38.1685 21.5028L26.732 23.5193C26.8756 24.3336 27.1879 25.0745 27.618 25.7215L38.0892 23.8752Z" fill="#8CC152"/>
<path d="M60.9622 19.842C61.1451 19.0869 61.1851 18.2839 61.0415 17.4696L49.605 19.4862C49.7486 20.3005 50.0608 21.0414 50.4909 21.6884L60.9622 19.842Z" fill="#8CC152"/>
<path d="M49.5257 21.8586C49.7086 21.1035 49.7486 20.3005 49.605 19.4862L38.1685 21.5028C38.3121 22.317 38.6243 23.0579 39.0545 23.705L49.5257 21.8586Z" fill="#8CC152"/>
<path d="M15.2163 27.9083C15.3991 27.1532 15.4392 26.3502 15.2956 25.5359L3.85909 27.5524C4.00267 28.3667 4.31491 29.1076 4.74503 29.7546L15.2163 27.9083Z" fill="#8CC152"/>
<path d="M26.6527 25.8917C26.8356 25.1366 26.8756 24.3336 26.732 23.5193L15.2956 25.5359C15.4392 26.3502 15.7514 27.0911 16.1815 27.7381L26.6527 25.8917Z" fill="#8CC152"/>
<path d="M64.6741 18.0083L64.4724 16.8647C62.5821 6.14412 52.3228 -1.03951 41.6023 0.85081L16.442 5.28724C5.72146 7.17756 -1.46217 17.4369 0.428151 28.1574L0.629807 29.3011L3.02003 28.8796C3.12964 29.1869 3.25311 29.4859 3.40221 29.7697C1.9791 31.0949 1.29205 33.0568 1.63809 35.0193C1.969 36.896 3.18258 38.3883 4.76746 39.1843C3.5504 40.4744 2.92042 42.2917 3.25133 44.1685C3.58225 46.0452 4.79583 47.5375 6.38071 48.3335C5.16365 49.6235 4.53366 51.4409 4.86458 53.3177C5.1955 55.1944 6.40908 56.6867 7.99395 57.4827C6.7769 58.7727 6.14691 60.5901 6.47783 62.4668C6.82649 64.4442 8.13935 66.0381 9.93156 66.7928C9.88873 67.1117 9.87402 67.4362 9.87633 67.7636L7.48611 68.1851L7.68776 69.3287C8.68838 75.0035 14.1207 78.8073 19.7955 77.8066L63.2541 70.1437C68.9289 69.1431 72.7327 63.7108 71.732 58.036L71.5304 56.8923L69.1402 57.3138C69.0303 57.0053 68.9055 56.7054 68.7562 56.4204C70.1822 55.0983 70.8708 53.1515 70.5221 51.1741C70.1912 49.2974 68.9776 47.805 67.3927 47.0091C68.6098 45.719 69.2398 43.9016 68.9089 42.0249C68.5779 40.1482 67.3644 38.6559 65.7795 37.8599C66.9965 36.5699 67.6265 34.7525 67.2956 32.8757C66.9647 30.999 65.7511 29.5067 64.1662 28.7107C65.3833 27.4207 66.0133 25.6033 65.6824 23.7266C65.3337 21.7492 64.0208 20.1553 62.2286 19.4006C62.2715 19.0817 62.2862 18.7572 62.2839 18.4298L64.6741 18.0083ZM16.8453 7.57454L42.0056 3.13811C51.0804 1.53797 59.7803 7.30793 61.9457 16.131L2.55153 26.6038C1.56867 17.5722 7.77048 9.17468 16.8453 7.57454ZM54.888 25.4259L54.0766 29.3106L47.7426 26.2849C48.8597 25.5384 49.7404 24.494 50.2731 23.2751C51.4671 24.5291 53.1114 25.3146 54.888 25.4259ZM44.6934 25.0691C42.5685 25.4437 40.5343 24.293 39.6762 22.4161L48.5006 20.8601C48.3363 22.9173 46.8183 24.6944 44.6934 25.0691ZM37.0641 22.8767C36.8998 24.9339 35.3818 26.7109 33.2569 27.0856C31.132 27.4603 29.0978 26.3096 28.2398 24.4327L37.0641 22.8767ZM25.6277 24.8933C25.4633 26.9505 23.9453 28.7275 21.8204 29.1022C19.6955 29.4769 17.6613 28.3262 16.8033 26.4492L25.6277 24.8933ZM14.1912 26.9098C14.0268 28.967 12.5089 30.7441 10.384 31.1187C8.25906 31.4934 6.22486 30.3427 5.3668 28.4658L14.1912 26.9098ZM3.92538 34.616C3.73099 33.5135 4.0821 32.4151 4.82637 31.627C6.37301 33.0689 8.54915 33.8007 10.7873 33.406C13.1706 32.9858 15.0596 31.3933 15.9637 29.3248C17.5207 30.9594 19.8404 31.8097 22.2237 31.3895C24.6071 30.9692 26.4961 29.3768 27.4001 27.3082C28.9572 28.9428 31.2769 29.7932 33.6602 29.3729C36.0436 28.9527 37.9325 27.3602 38.8366 25.2917C40.304 26.8324 42.4513 27.6613 44.6895 27.401L50.139 30.0049L28.547 33.8121C26.6554 34.1457 25.3874 35.9565 25.721 37.8481L27.3342 46.9972C27.4453 47.6274 27.0224 48.2314 26.3922 48.3425C25.7621 48.4537 25.158 48.0307 25.0469 47.4005L23.837 40.5387C23.5035 38.6471 21.6927 37.3791 19.8011 37.7127C17.9095 38.0462 16.6416 39.857 16.9751 41.7486L17.7817 46.3232C17.8928 46.9533 17.4699 47.5574 16.8397 47.6685C16.2096 47.7796 15.6055 47.3567 15.4944 46.7265L14.2845 39.8646C13.951 37.973 12.1402 36.7051 10.2486 37.0386L7.96129 37.442C6.0697 37.7755 4.25892 36.5076 3.92538 34.616ZM57.3111 47.6075C55.6345 47.9032 54.4342 46.5665 52.6575 44.328C51.9542 43.4426 51.2074 42.5177 50.3646 41.7572L61.8308 39.7353C61.3071 40.7239 60.929 41.8365 60.5624 42.9341C59.6573 45.6455 58.9877 47.3119 57.3111 47.6075ZM50.8382 45.7737C51.5415 46.6591 52.2883 47.584 53.1311 48.3446L41.6626 50.3668C42.1931 49.3629 42.5787 48.2395 42.9367 47.167C43.8396 44.456 44.5092 42.7896 46.1846 42.4942C47.8612 42.1986 49.0615 43.5352 50.8382 45.7737ZM40.7329 46.4318C39.8287 49.1418 39.1591 50.8082 37.4848 51.1034C35.8094 51.3989 34.6091 50.0622 32.8324 47.8237C32.1138 46.9186 31.3778 46.0012 30.5475 45.2514L42.0046 43.2313C41.4752 44.2349 41.0907 45.3581 40.7329 46.4318ZM13.0143 51.3193C12.2956 50.4131 11.5595 49.4957 10.7304 48.7457L13.6192 48.2364C14.3268 49.4806 15.754 50.2183 17.2431 49.9558C18.7321 49.6932 19.8209 48.5119 20.0603 47.1006L22.1714 46.7284C21.649 47.7179 21.2753 48.8356 20.9112 49.9269C20.0082 52.6367 19.3386 54.3031 17.6631 54.5985C15.9888 54.8938 14.7897 53.5569 13.0143 51.3193ZM22.1547 44.3729L19.8674 44.7762L19.2624 41.3453C19.1513 40.7151 19.5742 40.1111 20.2044 40C20.8345 39.8889 21.4386 40.3118 21.5497 40.942L22.1547 44.3729ZM23.1148 50.6609C23.2552 50.24 23.3955 49.832 23.5388 49.4341C24.3136 50.3505 25.5307 50.8529 26.7955 50.6298C28.3406 50.3574 29.452 49.0966 29.633 47.6154C30.1027 48.1258 30.5623 48.6992 31.014 49.2681C31.7175 50.1546 32.4641 51.0784 33.3059 51.8403L21.8409 53.8619C22.3714 52.858 22.757 51.7346 23.1148 50.6609ZM5.53863 43.7652C5.20509 41.8736 6.47301 40.0628 8.36461 39.7292L10.6519 39.3259C11.2821 39.2148 11.8861 39.6378 11.9972 40.2679L13.0055 45.9862L9.57454 46.5911C7.68295 46.9247 5.87217 45.6568 5.53863 43.7652ZM7.15188 52.9143C6.93974 51.7112 7.37898 50.5442 8.21003 49.7668C9.25058 50.3179 10.1988 51.5092 11.1946 52.7628C11.8981 53.6493 12.6447 54.5731 13.4865 55.335L11.1878 55.7403C9.2962 56.0739 7.48542 54.8059 7.15188 52.9143ZM62.8508 67.8564L19.3922 75.5193C15.3654 76.2294 11.4981 73.8312 10.2579 70.0547L69.5641 59.5975C69.6915 63.5701 66.8776 67.1464 62.8508 67.8564ZM12.2231 67.3498C12.3875 65.2926 13.9054 63.5156 16.0303 63.1409C18.1552 62.7662 20.1894 63.9169 21.0475 65.7938L12.2231 67.3498ZM23.6596 65.3333C23.8239 63.276 25.3419 61.499 27.4668 61.1243C29.5917 60.7496 31.6259 61.9003 32.484 63.7773L23.6596 65.3333ZM35.0961 63.3167C35.2604 61.2595 36.7784 59.4824 38.9033 59.1078C41.0282 58.7331 43.0624 59.8838 43.9204 61.7607L35.0961 63.3167ZM46.5325 61.3001C46.6969 59.2429 48.2149 57.4659 50.3398 57.0912C52.4647 56.7165 54.4989 57.8672 55.3569 59.7442L46.5325 61.3001ZM57.969 59.2836C58.1334 57.2264 59.6513 55.4493 61.7762 55.0746C63.9011 54.7 65.9353 55.8507 66.7934 57.7276L57.969 59.2836ZM68.2348 51.5774C68.4306 52.6879 68.0823 53.7823 67.3367 54.5694C65.7897 53.1253 63.6122 52.3925 61.3729 52.7873C58.9896 53.2076 57.1006 54.8001 56.1965 56.8686C54.6395 55.234 52.3198 54.3837 49.9364 54.8039C47.5531 55.2242 45.6641 56.8166 44.7601 58.8852C43.203 57.2506 40.8833 56.4002 38.5 56.8205C36.1166 57.2407 34.2277 58.8332 33.3236 60.9017C31.7665 59.2671 29.4469 58.4168 27.0635 58.837C24.6801 59.2573 22.7912 60.8497 21.8871 62.9183C20.3301 61.2837 18.0104 60.4333 15.627 60.8536C13.3877 61.2484 11.5922 62.6817 10.6324 64.5679C9.66252 64.0833 8.96093 63.174 8.76512 62.0635C8.43159 60.1719 9.69951 58.3611 11.5911 58.0276L64.1989 48.7514C66.0905 48.4179 67.9013 49.6858 68.2348 51.5774ZM63.7956 46.4641L61.49 46.8707C62.0205 45.8668 62.4061 44.7434 62.7653 43.6707C63.2721 42.1509 63.7566 40.7059 64.5471 39.8319C65.5962 40.2777 66.4092 41.224 66.6216 42.4282C66.9551 44.3198 65.6872 46.1306 63.7956 46.4641ZM65.0083 33.279C65.3419 35.1706 64.0739 36.9814 62.1823 37.315L29.0166 43.163L28.0083 37.4447C27.8972 36.8146 28.3201 36.2106 28.9503 36.0994L60.9724 30.4531C62.864 30.1195 64.6748 31.3875 65.0083 33.279ZM63.3951 24.1299C63.7286 26.0215 62.4607 27.8322 60.5691 28.1658L56.54 28.8762L57.318 25.1495C59.1911 24.5905 60.6825 23.2851 61.5267 21.6257C62.4977 22.1101 63.1993 23.0194 63.3951 24.1299ZM56.1299 23.0525C54.005 23.4272 51.9708 22.2765 51.1127 20.3996L59.9371 18.8436C59.7727 20.9008 58.2548 22.6778 56.1299 23.0525Z" fill="black"/>
<path d="M32.5857 16.5911L30.2984 16.9945L30.7017 19.2817L32.989 18.8784L32.5857 16.5911Z" fill="black"/>
<path d="M22.6299 13.6298L20.3426 14.0331L20.7459 16.3204L23.0332 15.9171L22.6299 13.6298Z" fill="black"/>
<path d="M34.4034 6.83699L32.1161 7.2403L32.5194 9.5276L34.8067 9.12429L34.4034 6.83699Z" fill="black"/>
<path d="M45.9061 11.884L43.6188 12.2873L44.0221 14.5746L46.3094 14.1713L45.9061 11.884Z" fill="black"/>
<path d="M6.28176 21.2292L3.99446 21.6325L4.39777 23.9198L6.68507 23.5165L6.28176 21.2292Z" fill="black"/>
<path d="M9.84807 14.7044L7.56077 15.1077L7.96409 17.395L10.2514 16.9917L9.84807 14.7044Z" fill="black"/>
<path d="M16.1713 17.127L13.884 17.5303L14.2873 19.8176L16.5746 19.4143L16.1713 17.127Z" fill="black"/>
<path d="M17.2486 9.86183L14.9613 10.2651L15.3647 12.5524L17.6519 12.1491L17.2486 9.86183Z" fill="black"/>
<path d="M29.0884 10.1326L26.8011 10.5359L27.2044 12.8232L29.4917 12.4199L29.0884 10.1326Z" fill="black"/>
<path d="M40.5912 15.1796L38.3039 15.5829L38.7072 17.8702L40.9945 17.4668L40.5912 15.1796Z" fill="black"/>
<path d="M45.8398 4.82043L43.5525 5.22375L43.9558 7.51104L46.2431 7.10773L45.8398 4.82043Z" fill="black"/>
<path d="M58.8896 11.9531L56.6023 12.3564L57.0056 14.6437L59.2929 14.2404L58.8896 11.9531Z" fill="black"/>
<path d="M54.652 7.98343L52.3647 8.38674L52.768 10.674L55.0553 10.2707L54.652 7.98343Z" fill="black"/>
<path d="M40.7266 9.25966L38.4393 9.66297L38.8426 11.9503L41.1299 11.547L40.7266 9.25966Z" fill="black"/>
</svg>
