<svg width="962" height="321" viewBox="0 0 962 321" fill="none" xmlns="http://www.w3.org/2000/svg">
<path d="M1580.08 314.545C1566.92 312.901 1552.83 312.086 1538.82 311.952C1538.24 303.285 1534.06 295.117 1527.04 290.668C1516.05 283.729 1502.32 288.525 1496.39 301.41C1493.76 256.907 1388.37 231.21 1370.28 272.896C1368.44 256.883 1360.44 242.05 1347.38 233.797C1325.73 220.121 1298.69 229.561 1287.01 254.947C1286.69 255.629 1286.55 256.347 1286.27 257.041C1279.67 255.245 1272.97 254.034 1266.23 253.425C1268.39 238.964 1262.73 223.882 1251.09 216.506C1237.19 207.735 1220.07 213.256 1211.73 228.642C1207.12 224.217 1202.11 220.218 1196.68 216.78C1183.2 208.259 1168.75 204.059 1154.41 203.566C1146.65 179.16 1131.67 157.779 1110.57 144.437C1073.59 121.06 1029.28 129.416 1000.27 161.449C1000.17 140.232 990.685 119.721 973.625 108.93C957.137 98.5038 938.014 99.9706 923.035 110.5C919.152 81.9428 904.448 55.729 881.046 40.9331C850.504 21.615 814.163 27.4092 789.148 52.1685C782.161 35.6319 770.95 21.3594 756.032 11.9317C717.749 -12.2615 669.941 4.45155 649.272 49.3322C648.413 51.2007 647.701 53.1179 646.953 55.0351C640.13 47.3968 632.412 40.5983 623.709 35.0841C571.196 1.90746 505.646 24.8347 477.314 86.3615C472.165 97.5421 468.641 109.24 466.572 121.084C437.564 120.603 409.318 138.509 394.601 170.499C390.45 179.513 387.723 188.971 386.25 198.539C369.19 194.291 351.503 200.31 339.032 214.522C335.721 211.345 332.124 208.46 328.223 205.995C296.252 185.776 256.648 198.782 238.06 234.82C237.038 233.919 236.021 233.012 234.865 232.288C222.82 224.668 207.774 229.932 201.274 244.053C198.487 250.115 197.823 256.797 198.815 263.085C195.62 263.967 192.492 265.148 189.473 266.657C187.306 261.137 183.739 256.329 178.816 253.225C166.771 245.611 151.719 250.881 145.231 265.002C142.626 270.668 141.859 276.87 142.565 282.78C138.414 283.857 134.422 285.415 130.679 287.612C120.216 285.044 109.133 290.534 103.801 302.122C103.248 303.334 102.876 304.599 102.469 305.853C99.3706 305.056 96.1387 304.502 92.7243 304.502C80.6733 304.502 70.2596 309.895 64.5324 317.855C63.6438 317.849 62.7734 317.825 61.8726 317.825C27.996 317.825 0.552734 323.991 0.552734 331.623C0.552734 339.237 27.996 345.414 61.8726 345.414C62.7734 345.414 63.6438 345.39 64.5263 345.378C70.2596 353.345 80.6733 358.737 92.7243 358.737C99.5288 358.737 105.859 357.033 111.099 354.106C115.353 363.107 122.115 370.886 131.16 376.017C144.489 383.594 159.638 383.631 172.565 377.861C176.156 381.835 180.191 385.365 184.744 388.244C202.68 399.589 223.447 398.603 240.062 387.848C244.286 393.168 249.271 397.806 255.029 401.439C281.316 418.079 313.616 408.652 330.469 380.8C334.906 396.126 344.048 409.613 357.158 417.897C384.29 435.091 418.009 423.587 433.225 392.389C442.433 407.191 454.417 419.936 469.085 429.205C515.281 458.474 571.543 444.147 603.697 398.396C609.881 410.885 618.919 421.64 630.568 428.992C664.116 450.246 706.015 435.553 724.127 396.235C724.395 395.657 724.584 395.061 724.84 394.483C729.356 410.532 738.862 424.689 752.563 433.332C780.986 451.347 816.469 438.888 831.819 405.59C832.86 403.332 833.755 401.019 834.564 398.7C843.146 414.008 854.99 427.105 869.707 436.399C915.056 465.127 971.117 447.245 998.256 396.966C1003.95 407.483 1011.93 416.521 1021.94 422.851C1048.24 439.497 1079.99 432.34 1099.41 407.818C1101.67 409.552 1103.97 411.25 1106.4 412.778C1143.14 436.046 1187.06 427.933 1216.07 396.442C1252.72 409.729 1295.18 403.076 1322.68 381.306C1341.14 385.006 1360.58 385.164 1378.57 382.194C1382.03 386.923 1386.19 391.086 1391.15 394.215C1412.8 407.939 1439.83 398.463 1451.53 373.077C1451.63 372.858 1451.68 372.626 1451.77 372.401C1477.6 370.77 1501.51 364.824 1516.72 355.36C1556.47 357.155 1598.32 352.901 1618.58 344.246C1643.51 333.583 1626.27 320.296 1580.08 314.545Z" fill="url(#paint0_linear_190_148)"/>
<defs>
<linearGradient id="paint0_linear_190_148" x1="1411.35" y1="450.127" x2="144.789" y2="450.127" gradientUnits="userSpaceOnUse">
<stop stop-color="#F5F4F7"/>
<stop offset="0.9703" stop-color="#EBE8F1"/>
</linearGradient>
</defs>
</svg>
