<svg width="84" height="105" viewBox="0 0 84 105" fill="none" xmlns="http://www.w3.org/2000/svg">
<path d="M78.0494 35.284C77.5937 34.5757 77.0551 33.9457 76.5695 33.2669C76.5522 33.1856 76.5268 33.1063 76.4939 33.03C76.3798 32.8293 76.2205 32.6578 76.0287 32.5293C56.068 5.48068 13.6488 0.398495 11.7852 0.195411C11.7584 0.192003 11.7372 0.204032 11.7117 0.202971C11.6573 0.199662 11.6027 0.200558 11.5484 0.205652C11.4638 0.209751 11.3797 0.221135 11.2971 0.239673C11.238 0.247875 11.1796 0.260308 11.1223 0.276874C11.0706 0.30628 11.0189 0.335686 10.9592 0.35099C10.8994 0.366293 10.879 0.368599 10.8437 0.388648C10.8087 0.415645 10.7754 0.44493 10.7443 0.476312C10.6975 0.49972 10.652 0.5256 10.6079 0.553839C10.5601 0.599589 10.515 0.648095 10.4728 0.699113C10.4154 0.758621 10.3637 0.823419 10.3185 0.892644C10.2873 0.937355 10.2587 0.983762 10.2327 1.03165C10.2139 1.04234 10.1927 1.05437 10.1909 1.08958C9.41738 2.79238 -7.90827 41.8471 5.13277 72.8308C5.14521 73.0633 5.2112 73.2898 5.32558 73.4926C5.37677 73.559 5.43233 73.622 5.49188 73.6811C5.82936 74.4441 6.09403 75.2267 6.46843 75.9781C10.7746 84.606 17.0686 90.3024 25.1747 92.906C39.4487 97.4891 54.8723 91.163 59.4537 89.018L68.0082 104.061C68.1043 104.248 68.2372 104.413 68.3988 104.547C68.5605 104.681 68.7476 104.781 68.9489 104.841C69.1501 104.901 69.3614 104.919 69.5701 104.895C69.7787 104.871 69.9803 104.806 70.1629 104.702C70.3454 104.598 70.5051 104.458 70.6323 104.291C70.7594 104.124 70.8515 103.933 70.903 103.729C70.9544 103.526 70.9641 103.314 70.9316 103.107C70.8991 102.899 70.8249 102.7 70.7136 102.522L62.1604 87.4819C66.3461 84.6412 79.6708 74.6188 83.0298 60.0082C84.9405 51.7175 83.2628 43.3959 78.0494 35.284ZM5.39689 27.6552C9.70778 27.5397 24.6688 27.8501 30.0421 37.2989L37.4284 50.2874C21.5255 41.4671 8.61872 45.3542 3.46852 47.6641C3.45404 40.9474 4.09994 34.2455 5.39689 27.6552ZM55.2464 18.2191C50.6318 21.4654 40.6746 30.5775 40.1338 48.749L32.7542 35.7722C27.3782 26.3187 34.7712 13.2992 37.0697 9.65599C43.3948 11.9073 49.483 14.7755 55.2464 18.2191ZM3.52386 51.0542C6.99666 49.1477 21.7704 42.6032 40.6564 55.9638L49.9648 72.3322C30.5495 61.5745 12.8407 68.0555 7.54323 70.5331C5.08617 64.2597 3.84959 57.6438 3.5252 51.0565L3.52386 51.0542ZM43.3618 54.4253C41.5345 31.3513 54.7321 22.0078 58.1353 20.0009C63.628 23.6428 68.6733 28.0897 72.8019 33.397C67.9549 36.6666 53.3488 48.609 52.6662 70.7867L43.3618 54.4253ZM34.0216 8.61165C32.0038 11.8898 28.064 19.2379 27.7337 26.9439L14.5464 3.7545C21.151 4.88167 27.6612 6.50532 34.0216 8.61165ZM11.841 5.29298L25.0324 28.4895C18.2445 24.8345 9.91639 24.4661 6.06311 24.5111C7.50489 17.9693 9.4363 11.5452 11.841 5.29298ZM26.1132 89.9399C18.841 87.5992 13.1714 82.4374 9.25698 74.5914C9.05791 74.1976 8.93033 73.7818 8.74669 73.3823C13.7643 70.9924 33.0191 63.7348 53.1942 78.0109L57.9058 86.2962C53.4021 88.3535 38.9685 94.0793 26.1132 89.9399ZM55.9035 76.4795C53.9119 51.5082 69.9939 38.994 74.6574 35.9158C74.9031 36.2769 75.1952 36.5991 75.4306 36.9692C80.1723 44.3447 81.7169 51.8523 80.0034 59.303C76.9845 72.4604 64.6842 81.9376 60.6152 84.7648L55.9035 76.4795Z" fill="#816F5D"/>
</svg>
