<svg width="106" height="125" viewBox="0 0 106 125" fill="none" xmlns="http://www.w3.org/2000/svg">
<path d="M94.6751 95.7002C95.2243 94.8021 95.6402 93.8532 96.14 92.9374C96.222 92.8737 96.2976 92.802 96.3655 92.7234C96.5293 92.4858 96.6356 92.2133 96.6759 91.9276C116.258 54.7487 98.9006 4.24497 98.1153 2.03714C98.1046 2.0051 98.0795 1.98784 98.0669 1.95858C98.041 1.89552 98.0103 1.83455 97.975 1.77622C97.9244 1.68326 97.8658 1.59484 97.8 1.51194C97.7586 1.44991 97.7129 1.39093 97.663 1.33545C97.6018 1.29325 97.5406 1.25105 97.4909 1.19216C97.4412 1.13326 97.4274 1.11149 97.3857 1.08272C97.3362 1.05796 97.2852 1.0365 97.2329 1.01848C97.1811 0.978565 97.1273 0.94143 97.0715 0.907232C96.994 0.878288 96.9149 0.8539 96.8345 0.834194C96.7363 0.801945 96.6353 0.779038 96.5327 0.765777C96.4655 0.755043 96.3977 0.748049 96.3296 0.744827C96.3074 0.729482 96.2823 0.712221 96.2417 0.729405C93.9046 0.785175 40.5266 2.53307 12.7517 34.0652C12.4969 34.2057 12.2779 34.4032 12.1119 34.6422C12.0649 34.736 12.0243 34.8327 11.9902 34.9319C11.3151 35.7268 10.5783 36.4504 9.93636 37.2806C2.56907 46.8205 -0.417701 57.0027 1.06202 67.5418C3.66946 86.0992 19.1796 100.016 24.0859 104.005L11.8104 121.815C11.6526 122.025 11.5388 122.265 11.4759 122.52C11.413 122.774 11.4023 123.039 11.4444 123.298C11.4865 123.557 11.5805 123.805 11.7209 124.027C11.8613 124.249 12.045 124.44 12.2612 124.589C12.4773 124.738 12.7213 124.842 12.9786 124.894C13.2358 124.946 13.5009 124.946 13.7581 124.893C14.0152 124.84 14.2589 124.736 14.4747 124.586C14.6904 124.437 14.8738 124.245 15.0136 124.023L27.2872 106.215C32.7613 109.38 51.2894 118.924 69.5596 114.756C79.9295 112.396 88.382 105.98 94.6751 95.7002ZM63.7365 9.78623C66.2116 14.5749 74.0013 31.5811 66.2907 42.7685L55.6916 58.1471C56.9666 35.4515 45.5705 23.0407 40.1693 18.5011C47.7204 14.8309 55.6141 11.9119 63.7365 9.78623ZM101.475 60.7539C95.3111 57.3267 79.6393 51.0778 58.8948 60.3548L69.4843 44.9901C77.1987 33.7971 95.873 35.0344 101.223 35.6393C102.131 43.9823 102.215 52.3944 101.475 60.7539ZM36.3841 20.4077C40.4189 23.2789 55.8212 36.345 51.0595 64.8679L37.7022 84.2484C39.2468 56.5458 22.3191 40.1419 16.649 35.528C22.3724 29.3499 29.1453 24.3591 36.3822 20.4105L36.3841 20.4077ZM54.2627 67.0756C79.2363 52.4666 96.9312 62.2363 101.041 64.9745C99.9307 73.1373 97.6708 81.2345 93.944 88.7681C87.6275 85.0919 66.2414 75.1509 40.9111 86.4477L54.2627 67.0756ZM100.741 31.6408C95.9536 31.1534 85.5406 30.7168 76.6885 34.5374L95.612 7.0808C97.9365 15.1269 99.6509 23.3368 100.741 31.6408ZM92.4089 4.87313L73.4796 32.3381C73.9002 22.7105 69.7843 13.1376 67.6374 8.82553C75.7839 6.88933 84.0643 5.56814 92.4089 4.87313ZM4.91075 66.9844C3.5887 57.5268 6.31355 48.338 13.014 39.6644C13.3489 39.2261 13.7474 38.8563 14.0971 38.4324C19.5164 42.779 38.1591 60.5004 33.0682 90.972L26.307 100.782C21.5417 96.8325 7.24564 83.7038 4.91075 66.9844ZM36.2656 93.188C63.285 77.3619 86.1175 88.6528 92.1187 92.2265C91.846 92.6995 91.6423 93.2036 91.3538 93.6698C85.633 103.019 78.0241 108.841 68.7069 110.966C52.2571 114.726 34.8998 106.039 29.5045 102.998L36.2656 93.188Z" fill="#816F5D"/>
</svg>
