<svg width="53" height="74" viewBox="0 0 53 74" fill="none" xmlns="http://www.w3.org/2000/svg">
<path d="M52.0404 46.8186C52.1675 46.2993 52.2223 45.776 52.3228 45.2557C52.3527 45.2123 52.3781 45.1659 52.3989 45.1174C52.4415 44.9771 52.4508 44.8289 52.4262 44.6844C56.1623 23.6732 39.969 1.9163 39.2483 0.969266C39.2381 0.955423 39.2234 0.950936 39.2127 0.938735C39.1904 0.91222 39.1662 0.887461 39.1401 0.864681C39.1013 0.827519 39.0593 0.793775 39.0147 0.763822C38.9851 0.740194 38.9538 0.718719 38.9211 0.699565C38.885 0.688599 38.8489 0.677631 38.8157 0.656809C38.7826 0.635987 38.7726 0.627569 38.7479 0.620092C38.7202 0.615745 38.6922 0.61324 38.6641 0.61259C38.6329 0.601272 38.6011 0.59162 38.5688 0.583677C38.5269 0.581636 38.4848 0.582051 38.4429 0.584919C38.3904 0.584474 38.338 0.588985 38.2863 0.598393C38.2521 0.603582 38.2182 0.610665 38.1848 0.619608C38.1717 0.61562 38.1569 0.611133 38.1399 0.625712C37.0177 1.01343 11.4608 10.0979 2.88906 29.6415C2.78742 29.7489 2.71195 29.8782 2.66852 30.0195C2.66029 30.0721 2.65556 30.1252 2.65437 30.1784C2.45041 30.6672 2.20559 31.1311 2.02314 31.6318C-0.0690239 37.3848 0.057455 42.7724 2.4001 47.6433C6.52598 56.2197 16.1784 60.5591 19.168 61.7319L15.9777 72.2443C15.9337 72.3701 15.9156 72.5036 15.9245 72.6366C15.9334 72.7696 15.9691 72.8994 16.0294 73.0183C16.0898 73.1371 16.1736 73.2426 16.2757 73.3282C16.3779 73.4139 16.4963 73.478 16.6239 73.5167C16.7514 73.5554 16.8855 73.5679 17.018 73.5535C17.1505 73.5391 17.2788 73.498 17.395 73.4327C17.5113 73.3675 17.6131 73.2794 17.6944 73.1737C17.7758 73.0681 17.8349 72.9471 17.8682 72.8181L21.0581 62.3073C24.1953 62.9939 34.633 64.7517 42.8296 59.9149C47.4828 57.1726 50.5823 52.764 52.0404 46.8186ZM23.8103 10.0249C25.747 11.9599 32.1409 18.9859 30.1369 25.589L27.3823 34.6658C24.4962 23.4878 17.0666 19.2419 13.7526 17.8791C16.8397 14.9378 20.2085 12.3071 23.8103 10.0249ZM49.9366 28.8605C46.4253 28.1536 37.8781 27.5491 29.2728 35.2395L32.025 26.171C34.03 19.5646 43.2564 17.2809 45.9386 16.7477C47.6653 20.6444 49.0044 24.7016 49.9366 28.8605ZM12.2154 19.3858C14.6108 20.1523 24.0799 24.0969 26.1784 38.6326L22.7069 50.0714C19.1784 36.4292 8.4561 31.105 5.00047 29.7478C6.81616 25.8752 9.32288 22.415 12.2149 19.3875L12.2154 19.3858ZM28.069 39.2063C37.8975 28.2832 47.967 30.279 50.3782 30.9696C51.1008 35.0905 51.2572 39.3571 50.6168 43.5774C46.9931 42.7736 35.1112 41.2646 24.5989 50.6402L28.069 39.2063ZM45.0877 14.8876C42.6964 15.3906 37.5907 16.7867 33.8974 20.0015L38.8156 3.79599C41.1821 7.33027 43.2788 11.038 45.0877 14.8876ZM36.925 3.22222L32.0053 19.4327C30.7228 14.7095 27.2538 10.713 25.5495 8.958C29.1923 6.76379 32.9948 4.84646 36.925 3.22222ZM4.17624 46.7796C2.07682 42.4076 1.97696 37.5411 3.88018 32.3102C3.97457 32.0465 4.11033 31.806 4.21408 31.5469C7.50705 32.8136 19.2625 38.5105 21.5025 54.0398L19.7453 59.8298C16.83 58.6545 7.88657 54.5087 4.17624 46.7796ZM23.3916 54.6185C34.022 42.7907 46.8121 44.7296 50.2674 45.5325C50.2085 45.8034 50.1877 46.0787 50.1201 46.3488C48.795 51.7552 46.0122 55.7468 41.8321 58.213C34.4534 62.5714 24.7143 61.0472 21.6344 60.4085L23.3916 54.6185Z" fill="#816F5D"/>
</svg>
