<svg width="90" height="87" viewBox="0 0 90 87" fill="none" xmlns="http://www.w3.org/2000/svg">
<path d="M87.6024 42.9243C87.399 24.6552 76.2739 8.767 59.1762 2.3274C58.8504 2.21204 58.5225 2.10064 58.1927 1.9918C56.5443 1.45207 54.7935 2.51183 54.4921 4.22104L48.128 40.3141L84.221 46.6782C85.9302 46.9796 87.5234 45.6966 87.58 43.963C87.592 43.6161 87.5994 43.2699 87.6024 42.9243Z" fill="#CF9E76"/>
<path d="M45.4196 5.19896C24.0115 3.07499 4.3246 18.4639 1.83128 40.5295C-0.406997 60.3274 12.7216 79.077 32.0897 83.7448C53.6773 88.9487 74.8732 75.7112 80.199 54.8692C80.6094 53.2646 79.5493 51.647 77.9173 51.3592L41.5196 44.9413L47.9375 8.54351C48.2252 6.91154 47.0677 5.36213 45.4196 5.19896Z" fill="#CF9E76"/>
<path d="M47.7106 9.82999C28.3194 6.41079 9.82748 19.359 6.40828 38.7502C2.98908 58.1415 15.9372 76.6334 35.3285 80.0526C54.7198 83.4718 73.2117 70.5236 76.6309 51.1324L41.5196 44.9413L47.7106 9.82999Z" fill="#DFB28B"/>
<path d="M54.319 5.20276L48.128 40.3141L83.2392 46.5051C86.5218 27.8891 72.935 8.48526 54.319 5.20276Z" fill="#DFB28B"/>
<path d="M78.9009 45.7402C80.2152 31.511 72.5195 18.2085 60.1429 12.0221L57.6584 10.902C56.335 10.3674 54.9641 9.91283 53.5541 9.54111L48.128 40.3141L78.9009 45.7402Z" fill="#FCD770"/>
<path d="M41.5196 44.9413L46.9677 14.0433C29.9036 11.0345 13.6305 22.4291 10.6216 39.4931C7.61277 56.5572 19.0073 72.8304 36.0714 75.8392C53.1355 78.8481 69.4087 67.4535 72.4175 50.3894L41.5196 44.9413Z" fill="#FCD770"/>
<path d="M27.4785 67.0835C29.0298 67.357 30.5091 66.3212 30.7827 64.7699C31.0562 63.2185 30.0204 61.7392 28.4691 61.4657C26.9177 61.1921 25.4384 62.228 25.1649 63.7793C24.8913 65.3306 25.9272 66.8099 27.4785 67.0835Z" fill="#FC6E51"/>
<path d="M57.5452 36.1821C59.0965 36.4556 60.5759 35.4198 60.8494 33.8685C61.123 32.3172 60.0871 30.8378 58.5358 30.5643C56.9845 30.2908 55.5052 31.3266 55.2316 32.8779C54.9581 34.4292 55.9939 35.9086 57.5452 36.1821Z" fill="#B27946"/>
<path d="M70.5143 28.3321C72.0657 28.6056 73.545 27.5698 73.8185 26.0185C74.0921 24.4671 73.0562 22.9878 71.5049 22.7143C69.9536 22.4407 68.4743 23.4766 68.2007 25.0279C67.9272 26.5792 68.963 28.0585 70.5143 28.3321Z" fill="#FC6E51"/>
<path d="M34.9112 49.5685C36.4625 49.8421 37.9418 48.8062 38.2154 47.2549C38.4889 45.7036 37.4531 44.2243 35.9018 43.9507C34.3505 43.6772 32.8711 44.713 32.5976 46.2643C32.324 47.8156 33.3599 49.295 34.9112 49.5685Z" fill="#B27946"/>
<path d="M58.7055 62.4528C60.2568 62.7263 61.7361 61.6905 62.0097 60.1392C62.2832 58.5879 61.2474 57.1085 59.696 56.835C58.1447 56.5615 56.6654 57.5973 56.3919 59.1486C56.1183 60.6999 57.1542 62.1793 58.7055 62.4528Z" fill="#B27946"/>
<path d="M21.362 44.2832C22.9133 44.5567 24.3926 43.5209 24.6662 41.9696C24.9397 40.4183 23.9038 38.9389 22.3525 38.6654C20.8012 38.3918 19.3219 39.4277 19.0483 40.979C18.7748 42.5303 19.8106 44.0097 21.362 44.2832Z" fill="#FC6E51"/>
<path d="M78.165 49.9547L43.1717 43.7845L49.3419 8.79116C49.5487 7.61844 49.254 6.39928 48.5325 5.4481C47.8166 4.50658 46.745 3.89911 45.5597 3.7799C23.1969 1.55998 2.94399 17.9743 0.412882 40.3692C-1.92061 61.0192 11.5525 80.2625 31.7555 85.131C32.5946 85.3326 33.4326 85.5079 34.2724 85.6559C55.3521 89.3714 76.2302 76.1619 81.5804 55.2228C81.8716 54.0809 81.6707 52.8551 81.0296 51.8587C80.3825 50.8555 79.3377 50.1615 78.165 49.9547ZM32.4225 82.3582C13.6171 77.8259 1.07518 59.9125 3.24803 40.691C5.60455 19.8365 24.459 4.55279 45.278 6.61777C45.6645 6.65117 46.0202 6.85146 46.2606 7.17188C46.5072 7.49775 46.6034 7.89701 46.533 8.29587L45.8047 12.4264C28.5121 10.1389 12.2748 21.9047 9.21718 39.2455C6.07633 57.0582 18.0111 74.1028 35.8238 77.2437C50.9329 79.9078 65.6821 71.9242 71.6891 57.8303L69.0668 56.7119C63.5804 69.5784 50.115 76.8674 36.3191 74.4348C20.0569 71.5673 9.15863 56.0029 12.0261 39.7408C12.7915 35.3996 14.4827 31.4592 16.8303 28.0414C16.9752 28.2132 17.1246 28.409 17.3002 28.6615C17.9318 29.5636 18.7959 30.7977 20.7818 31.1478C22.7677 31.498 24.0019 30.6339 24.9039 30.0023C25.7134 29.4354 26.1056 29.1903 26.8949 29.3295L27.3902 26.5206C25.4043 26.1704 24.1702 27.0346 23.2682 27.6662C22.4586 28.233 22.0664 28.4781 21.2771 28.3389C20.4878 28.1998 20.2031 27.8353 19.6363 27.0258C19.3575 26.6276 19.0249 26.165 18.5782 25.7416C24.9478 18.1571 34.9011 13.9416 45.3032 15.2704L39.8675 46.0981L70.7177 51.5378C70.5219 52.4098 70.3014 53.2746 70.0311 54.1175L72.7479 54.9875C73.057 54.0226 73.3057 53.031 73.5266 52.0331L77.6697 52.7636C78.0686 52.834 78.4109 53.0609 78.6327 53.4041C78.8486 53.7405 78.9135 54.1357 78.8174 54.5169C73.6359 74.7864 52.8478 87.2964 32.4225 82.3582Z" fill="black"/>
<path d="M28.7167 60.0612C26.3937 59.6516 24.17 61.2087 23.7604 63.5316C23.3508 65.8546 24.9079 68.0783 27.2308 68.4879C29.5538 68.8975 31.7775 67.3405 32.1871 65.0175C32.5967 62.6945 31.0397 60.4708 28.7167 60.0612ZM27.7261 65.679C26.9509 65.5423 26.4326 64.8022 26.5693 64.0269C26.706 63.2517 27.4462 62.7334 28.2214 62.8701C28.9967 63.0068 29.5149 63.747 29.3782 64.5222C29.2415 65.2975 28.5014 65.8157 27.7261 65.679Z" fill="black"/>
<path d="M53.8272 32.6303C53.4176 34.9532 54.9746 37.177 57.2976 37.5866C59.6206 37.9962 61.8443 36.4391 62.2539 34.1161C62.6635 31.7932 61.1064 29.5694 58.7834 29.1598C56.4605 28.7502 54.2368 30.3073 53.8272 32.6303ZM59.445 33.6208C59.3083 34.3961 58.5681 34.9143 57.7929 34.7776C57.0176 34.641 56.4994 33.9008 56.6361 33.1256C56.7728 32.3503 57.5129 31.832 58.2882 31.9687C59.0634 32.1054 59.5817 32.8456 59.445 33.6208Z" fill="black"/>
<path d="M36.1494 42.5463C33.8264 42.1367 31.6027 43.6937 31.1931 46.0167C30.7835 48.3397 32.3406 50.5634 34.6636 50.973C36.9865 51.3826 39.2102 49.8255 39.6198 47.5025C40.0294 45.1796 38.4724 42.9559 36.1494 42.5463ZM35.1588 48.1641C34.3836 48.0274 33.8653 47.2872 34.002 46.512C34.1387 45.7367 34.8789 45.2185 35.6541 45.3552C36.4294 45.4919 36.9476 46.232 36.8109 47.0073C36.6742 47.7825 35.9341 48.3008 35.1588 48.1641Z" fill="black"/>
<path d="M59.9437 55.4305C57.6207 55.0209 55.397 56.578 54.9874 58.901C54.5778 61.2239 56.1349 63.4477 58.4578 63.8573C60.7808 64.2669 63.0045 62.7098 63.4141 60.3868C63.8237 58.0639 62.2666 55.8401 59.9437 55.4305ZM58.9531 61.0484C58.1779 60.9117 57.6596 60.1715 57.7963 59.3963C57.933 58.621 58.6731 58.1028 59.4484 58.2394C60.2237 58.3761 60.7419 59.1163 60.6052 59.8915C60.4685 60.6668 59.7284 61.1851 58.9531 61.0484Z" fill="black"/>
<path d="M22.6002 37.2609C20.2772 36.8513 18.0535 38.4084 17.6439 40.7314C17.2343 43.0543 18.7914 45.278 21.1143 45.6876C23.4373 46.0972 25.661 44.5402 26.0706 42.2172C26.4802 39.8943 24.9231 37.6705 22.6002 37.2609ZM21.6096 42.8787C20.8343 42.742 20.3161 42.0019 20.4528 41.2266C20.5895 40.4514 21.3296 39.9331 22.1049 40.0698C22.8801 40.2065 23.3984 40.9467 23.2617 41.7219C23.125 42.4972 22.3849 43.0154 21.6096 42.8787Z" fill="black"/>
<path d="M44.5795 68.6507C43.7902 68.5116 43.5055 68.1471 42.9387 67.3376C42.3071 66.4355 41.4429 65.2014 39.457 64.8513L38.9617 67.6602C39.751 67.7993 40.0358 68.1638 40.6026 68.9733C41.2342 69.8754 42.0984 71.1095 44.0843 71.4596C46.0702 71.8098 47.3043 70.9457 48.2063 70.314C49.0158 69.7472 49.4081 69.5021 50.1974 69.6413L50.6926 66.8324C48.7067 66.4822 47.4726 67.3464 46.5706 67.978C45.7611 68.5448 45.3689 68.7899 44.5795 68.6507Z" fill="black"/>
<path d="M89.0068 44.0104C89.0184 43.649 89.0269 43.2884 89.0279 42.9295L89.0274 42.9077C88.8179 24.0814 77.2984 7.62986 59.6589 0.986117C59.3212 0.86431 58.9795 0.74903 58.6373 0.636559C57.4564 0.254557 56.1753 0.399391 55.1103 1.03557C54.0412 1.67829 53.3036 2.74872 53.0877 3.9734L46.4759 41.4709L83.9733 48.0827C85.198 48.2986 86.4561 47.9716 87.4243 47.1866C88.3892 46.4039 88.9654 45.247 89.0068 44.0104ZM85.6283 44.9714C85.297 45.2403 84.8857 45.3473 84.4686 45.2738L80.3901 44.5546C81.152 30.5264 73.4109 17.0624 60.7792 10.7456L59.5037 13.2982C63.5202 15.3053 66.9845 18.1116 69.7933 21.4408C68.2935 21.8902 67.0865 23.1342 66.7963 24.7802C66.3867 27.1032 67.9437 29.3269 70.2667 29.7365C71.813 30.0092 73.3022 29.3986 74.255 28.2821C76.6182 33.1199 77.8028 38.5318 77.5615 44.0559L49.78 39.1572L52.6465 22.9007C52.7538 23.0398 52.8621 23.1893 52.9882 23.3693C53.6198 24.2714 54.4839 25.5055 56.4698 25.8557C58.4557 26.2058 59.6898 25.3417 60.5919 24.7101C61.4014 24.1432 61.7936 23.8981 62.5829 24.0373L63.0782 21.2284C61.0923 20.8782 59.8582 21.7424 58.9562 22.374C58.1466 22.9408 57.7544 23.1859 56.9651 23.0467C56.1758 22.9076 55.8911 22.5431 55.3242 21.7336C54.8627 21.0744 54.2701 20.2386 53.2109 19.7L54.6809 11.3631C55.5085 11.622 56.3279 11.9026 57.1241 12.224L58.193 9.57855C57.2127 9.18412 56.2006 8.84638 55.1792 8.53738L55.8966 4.46869C55.9701 4.05157 56.2111 3.70307 56.5773 3.48236C56.9383 3.26653 57.3577 3.22029 57.7507 3.34894C58.0672 3.45109 58.3827 3.55886 58.6743 3.66241C75.1829 9.87937 85.9764 25.2906 86.1752 42.929C86.1738 43.2575 86.1667 43.5849 86.1545 43.9173C86.1407 44.3319 85.9543 44.7074 85.6283 44.9714ZM71.2573 24.1187C72.0325 24.2554 72.5508 24.9956 72.4141 25.7708C72.2774 26.5461 71.5372 27.0643 70.762 26.9276C69.9867 26.7909 69.4685 26.0508 69.6052 25.2755C69.7419 24.5003 70.482 23.982 71.2573 24.1187Z" fill="black"/>
<path d="M73.7371 34.6928L70.9282 34.1975L70.4329 37.0064L73.2418 37.5017L73.7371 34.6928Z" fill="black"/>
<path d="M67.624 36.5111L64.8151 36.0159L64.3199 38.8248L67.1288 39.3201L67.624 36.5111Z" fill="black"/>
<path d="M53.1691 52.7879L50.3602 52.2926L49.8649 55.1015L52.6738 55.5968L53.1691 52.7879Z" fill="black"/>
<path d="M43.9994 55.5154L41.1905 55.0201L40.6952 57.829L43.5041 58.3243L43.9994 55.5154Z" fill="black"/>
<path d="M27.6413 49.7348L24.8324 49.2395L24.3371 52.0484L27.146 52.5437L27.6413 49.7348Z" fill="black"/>
<path d="M41.2685 21.7271L38.4596 21.2318L37.9643 24.0407L40.7732 24.536L41.2685 21.7271Z" fill="black"/>
<path d="M35.3216 30.8154L32.5127 30.3201L32.0175 33.129L34.8264 33.6243L35.3216 30.8154Z" fill="black"/>
<path d="M19.8761 52.7099L17.0672 52.2146L16.5719 55.0235L19.3808 55.5188L19.8761 52.7099Z" fill="black"/>
</svg>
