<svg width="302" height="29" viewBox="0 0 302 29" fill="none" xmlns="http://www.w3.org/2000/svg">
<path d="M301.021 24.696C267.718 -15.1654 260.217 29.2025 243.936 13.7456C216.39 -19.4697 206.733 25.1967 183.054 13.5527C150.551 -13.7938 150.32 7.94535 121.41 16.5726C112.325 14.7688 107.554 1.21522 97.0455 2.95062C75.1384 -9.66059 61.2334 22.7585 40.3868 12.2403C32.8978 7.74008 23.8943 7.64678 16.8034 13.0209C11.9517 13.7642 -8.09249 34.7663 5.7814 27.4422C10.0453 23.5204 14.135 19.9812 19.3909 17.6767C34.4497 8.99654 46.8775 23.0539 61.3049 25.7876C76.398 28.8573 83.7408 4.77622 97.2197 7.73386C144.138 41.7732 134.518 14.0317 167.049 8.41185C211.377 43.4216 205.726 4.41545 231.178 10.3059C237.327 17.148 246.228 19.042 252.42 25.6166C267.871 35.5718 274.237 -2.31778 292.925 26.2448C296.76 30.2195 296.772 26.1733 297.911 24.1891C298.33 24.9977 301.232 27.2649 301.021 24.6929V24.696ZM254.532 18.9891C262.947 16.019 271.988 5.24583 281.147 12.0382C271.963 9.87046 265.013 21.1101 254.221 19.0917L254.532 18.9891ZM228.205 4.52741C229.107 4.7389 230.062 5.2054 230.824 5.72789C229.455 5.87717 228.463 5.2365 227.415 4.38435C227.527 4.38435 228.084 4.50253 228.205 4.52741ZM100.078 5.67502C105.66 6.65779 109.638 11.2917 113.529 15.0393C108.214 12.5855 103.645 8.64511 98.7125 5.54751C99.0546 5.55684 99.7388 5.62215 100.078 5.67502ZM52.0526 17.4403C63.4073 15.5774 71.2042 4.84464 82.5527 2.95062C71.9257 7.33267 64.3714 21.1755 51.3559 17.5087L52.0526 17.4403ZM88.0637 7.13363C77.869 15.0767 67.3415 29.3051 53.2126 20.3731C68.825 23.7132 76.3295 1.39871 91.4381 5.03124C90.8534 5.29559 88.6422 6.76042 88.0637 7.13052V7.13363ZM161.526 6.11975C148.859 9.88912 137.949 27.0348 123.555 20.0123C138.017 20.4042 149.257 -4.26778 163.243 5.63148C163.146 5.65947 161.632 6.09176 161.526 6.11975ZM223.36 6.37167C213.097 9.80204 205.614 22.2235 193.964 20.4259C205.213 18.8398 214.425 3.26163 225.471 6.12908C225.394 6.13219 223.506 6.35612 223.357 6.37167H223.36ZM238.81 13.8669C236.923 12.4269 234.777 10.4894 233.013 8.90635C236.002 9.84869 237.868 12.5949 240.005 14.6848L238.81 13.8669ZM263.713 21.3092C259.735 25.9307 254.69 26.0644 250.834 21.1848C255.583 22.2111 260.587 21.3154 265.177 19.9594C264.848 20.2798 264.064 20.9951 263.716 21.3092H263.713ZM293.152 23.2032C291.983 21.7975 290.589 20.0403 289.417 18.647C292.182 19.5613 293.522 21.7819 294.284 24.4845L293.152 23.2032Z" fill="#FFD400"/>
</svg>
