<svg width="442" height="28" viewBox="0 0 442 28" fill="none" xmlns="http://www.w3.org/2000/svg">
<g clip-path="url(#clip0_271_2)">
<path d="M439.715 19.3477L434.529 18.8054L429.344 18.263L424.158 17.7207L418.953 17.1783L413.691 16.7054L408.448 16.2324L403.205 15.7594L397.944 15.2864L394.046 14.9837L391.831 14.5612L387.369 13.7729L382.907 12.9846L378.407 12.2468L374.071 11.5342L374.592 11.5468L378.33 11.6792L382.063 11.8117L385.795 11.9946L389.527 12.1774L393.253 12.4234L396.972 12.663L400.686 12.9783L404.392 13.2937L408.08 13.6909L411.768 14.0882L415.43 14.5675L419.086 15.0468L422.704 15.627L426.322 16.2072L429.896 16.9009L433.514 17.6009C434.897 17.872 436.243 16.9702 436.516 15.5891C436.789 14.2081 435.888 12.8711 434.504 12.6L430.892 11.9L427.236 11.1937L423.536 10.6009L419.842 10.0081L416.116 9.51617L412.396 9.02428L408.651 8.62068L404.906 8.21708L401.143 7.89545L397.379 7.57383L393.602 7.32789L389.832 7.08194L386.061 6.89275L382.291 6.70356L378.521 6.57113L374.751 6.4387L370.993 6.35041L367.242 6.26212L363.503 6.20536L359.765 6.14861L356.051 6.12338L352.338 6.09816L348.657 6.08554L344.982 6.07293H341.738L338.501 6.06663H335.264H333.569L332.763 5.97834L328.142 5.46753L323.509 5.00086L318.875 4.53419L314.235 4.11167L309.589 3.68915L304.937 3.31077L300.284 2.93239L295.632 2.59816L290.979 2.26392L286.326 1.97383L281.674 1.68374L277.028 1.4378L272.381 1.19185L267.742 0.990049L263.102 0.788247L258.474 0.624283L253.847 0.460319L249.233 0.340499L244.618 0.220679L240.023 0.145004L235.434 0.069328L230.864 0.0314902L226.294 -0.00634766H221.749L217.204 -4.13503e-05L212.691 0.0441028L208.179 0.0882469L203.697 0.170229L199.216 0.252211L194.773 0.378337L190.33 0.504463L185.931 0.668427L181.501 0.832391L177.197 1.1414L172.869 1.45672L168.527 2.01167L164.205 2.56663L159.876 3.28554L155.572 4.00446L151.262 4.81167L146.972 5.61888L142.681 6.45762L138.415 7.29005L134.156 8.08464L129.904 8.87924L128.926 9.04951L128.253 9.06843L124.21 9.18825L120.154 9.30807L116.098 9.45311L112.055 9.59816L108.012 9.7432L103.962 9.88825L99.9128 10.0585L95.8696 10.2288L91.8264 10.3991L87.7387 10.5756L86.2407 10.6891L84.5143 10.3991L80.4584 9.47203C79.081 9.15672 77.71 10.0081 77.3863 11.3828C77.3736 11.4459 77.3863 11.5027 77.3863 11.5594L76.7642 11.6414L73.0955 12.1396L69.395 12.7765L65.7263 13.4072L62.0385 14.0946L58.3634 14.7946L54.7011 15.4946L51.0514 16.1756L47.4207 16.8189L43.8154 17.4054L40.2356 17.9225L36.6874 18.3513L33.171 18.6729L29.6927 18.881L26.2652 18.9504L22.8757 18.8621L19.5371 18.6225L16.2555 18.2L12.9867 17.563L11.4316 17.1846L9.85744 16.7432L8.28966 16.2387L6.73457 15.6837L5.19853 15.0657L3.63075 14.3594C2.34225 13.7792 0.825244 14.3468 0.241293 15.627C-0.349005 16.9072 0.222251 18.4207 1.5044 19.0009L3.16739 19.745L4.88751 20.4387L6.62032 21.0567L8.35948 21.618L10.1177 22.1099L11.9203 22.545L15.4304 23.2261L19.0229 23.6927L22.6345 23.9513L26.2652 24.0459L29.9149 23.9702L33.5773 23.7495L37.246 23.4153L40.9274 22.9738L44.6152 22.4441L45.5419 22.2927C45.5038 22.5198 45.4594 22.7405 45.4848 22.9801C45.6498 24.3801 46.9193 25.3828 48.322 25.2189L51.5084 24.8531L54.6947 24.4873L57.881 24.1216L61.0547 23.7558L64.203 23.4153L67.3576 23.0747L70.5122 22.7342L73.6604 22.3936L76.7833 22.0783L79.9125 21.763L83.0417 21.4477L86.1646 21.1324L89.2621 20.8423L92.3722 20.5459L95.4824 20.2495L98.5799 19.9594L101.658 19.6882L104.743 19.4171L107.828 19.1459L110.906 18.8747L117.038 18.3765L123.169 17.8846L129.275 17.4306L135.381 16.9765L141.462 16.5603L147.543 16.1441L153.605 15.772L159.666 15.4L165.722 15.0594L171.77 14.7189L177.813 14.4162L183.856 14.1135L189.898 13.8423L195.941 13.5711L201.99 13.3441L207.95 13.1234L211.098 13.136L216.367 13.1612L221.635 13.1864L226.897 13.2117L232.197 13.2747L237.509 13.3378L242.822 13.4009L248.122 13.4639L253.454 13.5648L258.792 13.6657L264.13 13.7666L269.455 13.8675L274.806 14.0126L280.163 14.1576L285.52 14.3027L290.865 14.4477L291.88 14.4855H291.544L288.053 14.5928L284.575 14.6937L281.096 14.7946L277.612 14.8955L274.127 15.0279L270.649 15.1603L267.17 15.2928L263.686 15.4252L260.201 15.5828L256.723 15.7405L253.244 15.8982L249.766 16.0558L246.288 16.2135L242.809 16.3711L239.331 16.5288L235.846 16.6928L232.362 16.8819L228.89 17.0711L225.418 17.2603L221.946 17.4495L218.474 17.6387L215.002 17.8279L211.53 18.0171L208.052 18.2063L204.58 18.3955L201.108 18.5846L197.636 18.7738L194.164 18.963L190.692 19.1522L187.22 19.3414L183.748 19.5306L180.282 19.7198L176.817 19.9027L173.351 20.0855L169.885 20.2684L166.42 20.4513L162.96 20.6216L159.495 20.7918L156.029 20.9621L152.57 21.1324L149.117 21.2837L145.658 21.4351L142.198 21.5864L138.746 21.7378L135.299 21.8639L131.84 21.99L128.38 22.1162L124.934 22.2423L121.494 22.3369L118.041 22.4378L114.588 22.5324L111.148 22.627L107.714 22.69L104.267 22.7531L100.82 22.8162L97.3739 22.8792C95.9648 22.9045 94.8413 24.0648 94.8667 25.4774C94.8921 26.8837 96.06 28.0063 97.4691 27.981L100.916 27.918L104.362 27.8549L107.809 27.7918L111.268 27.7288L114.734 27.6279L118.187 27.5333L121.64 27.4324L125.105 27.3315L128.571 27.2054L132.03 27.0792L135.489 26.9531L138.955 26.827L142.427 26.6756L145.886 26.5243L149.346 26.3729L152.811 26.2216L156.283 26.0513L159.749 25.881L163.214 25.7108L166.686 25.5405L170.158 25.3576L173.624 25.1747L177.09 24.9918L180.561 24.809L184.033 24.6198L187.505 24.4306L190.977 24.2414L194.449 24.0522L197.921 23.863L201.393 23.6738L204.865 23.4846L208.337 23.2955L211.809 23.1063L215.281 22.9171L218.753 22.7279L222.225 22.5387L225.697 22.3495L229.169 22.1603L232.641 21.9711L236.107 21.7819L239.572 21.6243L243.051 21.4666L246.529 21.309L250.007 21.1513L253.486 20.9937L256.964 20.836L260.442 20.6783L263.908 20.5207L267.373 20.3882L270.852 20.2558L274.33 20.1234L277.796 19.9909L281.261 19.89L284.74 19.7891L288.218 19.6882L291.677 19.5873L295.136 19.5243L298.608 19.4612L302.08 19.3982L305.54 19.3351L308.999 19.3036L312.471 19.272L315.943 19.2405L319.396 19.209L322.849 19.2216L326.321 19.2342L329.793 19.2531L333.246 19.2657L336.692 19.3288L340.164 19.3982L343.636 19.4675L347.083 19.5306L350.529 19.6504L353.995 19.7702L357.46 19.89L360.901 20.0036L364.341 20.1801L367.807 20.3567L371.272 20.5333L374.712 20.7099L378.146 20.9558L381.606 21.2018L385.065 21.4477L388.505 21.6937L391.945 21.9837L395.386 22.2738L398.826 22.6018L402.266 22.9297L405.706 23.3018L409.146 23.6738L412.58 24.0774L416.014 24.481L419.448 24.9288L422.882 25.3765L426.31 25.8684L429.756 26.3603C431.153 26.5621 432.454 25.5973 432.657 24.2036C432.682 24.0333 432.638 23.8756 432.631 23.7117L434.009 23.8567L439.195 24.3991C440.597 24.5441 441.86 23.5288 442.006 22.1288C442.152 20.7288 441.137 19.4738 439.734 19.3288L439.715 19.3477ZM164.96 7.62428L169.181 7.08194L173.383 6.5459L177.572 6.2432L181.787 5.9405L186.128 5.77654L190.501 5.61257L194.919 5.48645L199.337 5.36032L203.793 5.27834L208.248 5.19635L212.736 5.15221L217.223 5.10807H221.743L226.262 5.10176L230.807 5.1396L235.358 5.17744L239.928 5.25311L244.498 5.32879L249.087 5.44861L253.676 5.56843L258.278 5.73239L262.88 5.89636L267.494 6.09816L272.108 6.29996L274.514 6.42608L272.077 6.45762L268.967 6.49545L262.816 6.60897L256.666 6.72248L250.515 6.83599L244.352 6.94951L238.246 7.11347L232.152 7.27744L226.059 7.4414L219.953 7.60536L213.878 7.83239L207.842 8.05311L205.811 8.0405H200.587L195.37 8.05311H190.159L184.935 8.06572L180.879 8.09726L176.829 8.12879L172.78 8.16032L168.724 8.19185L164.668 8.25491L160.714 8.31798L164.934 7.61798L164.96 7.62428ZM85.6314 16.081L82.4958 16.3964L79.3666 16.7117L76.2374 17.027L73.1019 17.3423H73.0511L73.8826 17.2036L77.4624 16.718L81.0106 16.2324L84.5143 15.9612L86.0122 15.8414L86.7549 15.9675L85.6378 16.0747L85.6314 16.081Z" fill="#FFD400"/>
</g>
<defs>
<clipPath id="clip0_271_2">
<rect width="442" height="28" fill="white"/>
</clipPath>
</defs>
</svg>
